<?xml version="1.0" encoding="utf-8"?>
<!-- Generator: Adobe Illustrator 19.0.0, SVG Export Plug-In . SVG Version: 6.00 Build 0)  -->
<svg version="1.1" id="Capa_1" xmlns="http://www.w3.org/2000/svg" xmlns:xlink="http://www.w3.org/1999/xlink" x="0px" y="0px"
	 viewBox="0 0 237.3 135.8" style="enable-background:new 0 0 237.3 135.8;" xml:space="preserve">
<style type="text/css">
	.st0{fill:#FFFFFF;}
	.st1{fill:#FFD900;}
</style>
<g id="XMLID_2_">
	<path id="XMLID_43_" class="st0" d="M28.9,19.7c-1.4-1.6-2.9-2.8-5.2-2.8c-3.3,0-5.1,2.7-5.1,5.7c0,4.1,3,6,6,8.1
		c3,2.1,6,4.3,6,9.2c0,5.1-3.3,10-8.8,10c-2,0-4-0.6-5.5-1.8v-4.2c1.5,1.6,3.4,2.8,5.7,2.8c3.4,0,5.4-3,5.3-6.2c0-4.1-3-5.9-6-8
		c-3-2.1-6-4.3-6-9.4c0-4.7,2.9-9.3,8.1-9.3c2.1,0,3.9,0.7,5.5,1.9V19.7z"/>
	<path id="XMLID_45_" class="st0" d="M53.2,17.1h-7.8v12.4H53v3h-7.6v13.8h7.8v3h-11V14.1h11V17.1z"/>
	<path id="XMLID_47_" class="st0" d="M69.8,14.1c4.6,0,8.4,0.6,8.4,8.7c0,3.4-0.6,6.4-4.1,8.3c4.2,1.4,4.9,4.6,4.9,8.5
		c0,7.3-2.5,9.6-9.6,9.6h-4.2V14.1H69.8z M68.5,16.9v12.7h0.9c2.7,0,5.5,0.5,5.5-6.6c0-5.5-1.3-6.2-5.5-6.2H68.5z M68.5,32.5v14h0.9
		c4.9,0,6.3-1.6,6.3-6.6c0-5.9-2.1-7.4-6.2-7.4H68.5z"/>
	<path id="XMLID_51_" class="st0" d="M105.3,49.3h-3.5l-1.3-7.2h-7.5l-1.3,7.2h-3.5l6.9-35.1h3.1L105.3,49.3z M100,39.2l-2.3-13.5
		c-0.4-2.4-0.6-4.8-0.9-7.2h-0.2c-0.3,2.4-0.6,4.8-0.9,7.2l-2.1,13.5H100z"/>
	<path id="XMLID_54_" class="st0" d="M127.6,19.7c-1.4-1.6-2.9-2.8-5.2-2.8c-3.3,0-5.1,2.7-5.1,5.7c0,4.1,3,6,6,8.1
		c3,2.1,6,4.3,6,9.2c0,5.1-3.3,10-8.8,10c-2,0-4-0.6-5.5-1.8v-4.2c1.5,1.6,3.4,2.8,5.7,2.8c3.4,0,5.4-3,5.3-6.2c0-4.1-3-5.9-6-8
		c-3-2.1-6-4.3-6-9.4c0-4.7,2.9-9.3,8.1-9.3c2.1,0,3.9,0.7,5.5,1.9V19.7z"/>
	<path id="XMLID_56_" class="st0" d="M152.3,17.1H147v32.2h-3.3V17.1h-5.3v-3h13.8V17.1z"/>
	<path id="XMLID_58_" class="st0" d="M166,49.3h-3.3V14.1h3.3V49.3z"/>
	<path id="XMLID_60_" class="st0" d="M193.1,49.3h-3.5l-1.3-7.2h-7.5l-1.3,7.2h-3.5l6.9-35.1h3.1L193.1,49.3z M187.8,39.2l-2.3-13.5
		c-0.4-2.4-0.6-4.8-0.9-7.2h-0.2c-0.3,2.4-0.6,4.8-0.9,7.2l-2.1,13.5H187.8z M186.5,4.5l2.5,2.2l-6.1,5.5l-1.5-1.4L186.5,4.5z"/>
	<path id="XMLID_64_" class="st0" d="M217.8,49.3H215l-7.9-23.6c-0.5-1.4-0.8-3-1.2-4.5h-0.2c0.1,2.3,0.4,4.5,0.4,6.8v21.4h-2.8
		V14.1h2.8l8.1,24.4c0.4,1.2,0.7,2.4,1.1,3.6h0.1c-0.1-1.5-0.3-3.1-0.3-4.7V14.1h2.8V49.3z"/>
</g>
<g id="XMLID_1_">
	<path id="XMLID_66_" class="st1" d="M33.6,57v54.3h10.7v13.6H16V57H33.6z"/>
	<path id="XMLID_68_" class="st1" d="M87.7,96.7c0,6.8-0.2,11.7-0.5,14.5c-0.3,2.8-1.3,5.4-3,7.8c-1.7,2.3-4,4.2-6.9,5.4
		c-2.9,1.3-6.2,1.9-10.1,1.9c-3.6,0-6.9-0.6-9.8-1.8s-5.2-3-7-5.3c-1.8-2.4-2.8-5-3.1-7.8c-0.3-2.8-0.5-7.7-0.5-14.7V85.1
		c0-6.8,0.2-11.7,0.5-14.5c0.3-2.8,1.3-5.4,3-7.8c1.7-2.3,4-4.2,6.9-5.4c2.9-1.3,6.2-1.9,10.1-1.9c3.6,0,6.9,0.6,9.8,1.8
		c2.9,1.2,5.2,3,7,5.3c1.8,2.4,2.8,5,3.1,7.8c0.3,2.8,0.5,7.7,0.5,14.7V96.7z M70,74.4c0-3.2-0.2-5.2-0.5-6.1
		c-0.4-0.9-1.1-1.3-2.2-1.3c-0.9,0-1.6,0.4-2.1,1.1c-0.5,0.7-0.7,2.8-0.7,6.3v31.7c0,3.9,0.2,6.4,0.5,7.3c0.3,0.9,1.1,1.4,2.2,1.4
		c1.2,0,2-0.5,2.3-1.6c0.3-1.1,0.5-3.6,0.5-7.6V74.4z"/>
	<path id="XMLID_71_" class="st1" d="M94.3,57h12.5c8.3,0,14,0.3,16.9,1c3,0.6,5.4,2.3,7.2,4.9c1.9,2.6,2.8,6.9,2.8,12.6
		c0,5.3-0.7,8.8-2,10.7c-1.3,1.8-3.9,2.9-7.8,3.3c3.5,0.9,5.8,2,7,3.5c1.2,1.5,2,2.8,2.2,4c0.3,1.2,0.4,4.6,0.4,10v17.9h-16.4v-22.6
		c0-3.6-0.3-5.9-0.9-6.8c-0.6-0.9-2.1-1.3-4.5-1.3v30.6H94.3V57z M111.9,68.6v15.1c2,0,3.4-0.3,4.2-0.8c0.8-0.5,1.2-2.3,1.2-5.3
		v-3.7c0-2.2-0.4-3.6-1.2-4.2C115.4,68.9,114,68.6,111.9,68.6z"/>
	<path id="XMLID_74_" class="st1" d="M181.8,86.5h-17.7V74.7c0-3.4-0.2-5.6-0.6-6.4c-0.4-0.9-1.2-1.3-2.5-1.3
		c-1.5,0-2.4,0.5-2.8,1.6c-0.4,1-0.6,3.3-0.6,6.7v31.6c0,3.3,0.2,5.5,0.6,6.5s1.3,1.5,2.6,1.5c1.3,0,2.2-0.5,2.6-1.5
		s0.6-3.4,0.6-7.1v-8.5h17.7v2.6c0,7-0.5,12-1.5,15c-1,2.9-3.2,5.5-6.6,7.7c-3.4,2.2-7.6,3.3-12.6,3.3c-5.2,0-9.4-0.9-12.8-2.8
		c-3.4-1.9-5.6-4.5-6.7-7.8c-1.1-3.3-1.6-8.3-1.6-15V80.9c0-4.9,0.2-8.6,0.5-11c0.3-2.4,1.3-4.8,3-7.1c1.7-2.3,4-4,6.9-5.3
		c3-1.3,6.3-2,10.2-2c5.2,0,9.5,1,12.9,3c3.4,2,5.6,4.5,6.7,7.5c1.1,3,1.6,7.7,1.6,14V86.5z"/>
	<path id="XMLID_76_" class="st1" d="M218.7,57l10.1,67.9h-18.1l-0.9-12.2h-6.3l-1.1,12.2h-18.3l9-67.9H218.7z M209.3,100.6
		c-0.9-7.7-1.8-17.2-2.7-28.5c-1.8,13-2.9,22.5-3.4,28.5H209.3z"/>
</g>
</svg>
