<?xml version="1.0" encoding="utf-8"?>
<!-- Generator: Adobe Illustrator 19.0.0, SVG Export Plug-In . SVG Version: 6.00 Build 0)  -->
<svg version="1.1" id="Capa_1" xmlns="http://www.w3.org/2000/svg" xmlns:xlink="http://www.w3.org/1999/xlink" x="0px" y="0px"
	 viewBox="0 0 220 220" style="enable-background:new 0 0 220 220;" xml:space="preserve">
<style type="text/css">
	.st0{fill:#FFFFFF;}
</style>
<path id="XMLID_6_" class="st0" d="M110.2,10.3C54.9,10.3,9.3,54.9,9.3,110.2C9.3,157.9,43,197.9,87,208v-74H71v-24h16v-9.7
	c0-9.3,1.8-16.8,3.8-21.1c2.1-4.9,6-8.3,11.5-11.4c5.4-3.1,12.3-4.4,20.8-4.4c8.5,0,16.9,0.8,24.9,3.6l-3.8,21
	c-4.6-1.3-9.5-1.9-13.6-1.9c-4.4,0-7.8,1.3-9.4,3.1c-2.1,2.1-3.2,5.7-3.2,11.6v9.2h22v24h-22v75.7c51-4.1,91.7-47.2,91.7-99.6
	C209.7,54.9,165.4,10.3,110.2,10.3z"/>
</svg>
