<?xml version="1.0" encoding="utf-8"?>
<!-- Generator: Adobe Illustrator 19.0.0, SVG Export Plug-In . SVG Version: 6.00 Build 0)  -->
<svg version="1.1" id="Capa_1" xmlns="http://www.w3.org/2000/svg" xmlns:xlink="http://www.w3.org/1999/xlink" x="0px" y="0px"
	 viewBox="0 0 220 220" style="enable-background:new 0 0 220 220;" xml:space="preserve">
<style type="text/css">
	.st0{fill:#FFFFFF;}
</style>
<g id="XMLID_29_">
	<path id="XMLID_30_" class="st0" d="M141,68.2c-10.4,0-10.4,0-10.4,10.6c0,10.6,0,10.6,10.6,10.6c10.5,0,10.5,0,10.5-10.5
		C151.7,68.2,151.7,68.2,141,68.2z"/>
	<path id="XMLID_32_" class="st0" d="M143.9,101.6c-1.7,0-2,0.4-1.6,2.2c1.1,5,0.7,10.4-0.7,15.5c-4.7,16.3-21.6,26.4-38.5,23.2
		c-16.5-3.2-28-19.4-26.1-36.1c0.6-4.8,0.5-4.6-4.5-4.9c-3.4-0.1-4.5,0.7-4.5,4.4c0.2,13.1,0.2,26.5,0.2,39.5c0,5,1.4,6.6,6.3,6.6
		c11.8,0,23.6,0,35.3,0c11.8,0,23.6,0,35.4,0c5,0,5.7-1.7,5.7-6.8c0-12.2,0-24.5,0-36.6C151,100.9,151.4,101.1,143.9,101.6z"/>
	<path id="XMLID_33_" class="st0" d="M109.7,130.9c11.5,0.2,21.1-9.4,21.2-20.9c0.2-11.2-9.5-21-20.8-21c-11.3,0-20.8,9.4-21.1,20.7
		C88.7,121.1,98.3,130.6,109.7,130.9z"/>
	<path id="XMLID_40_" class="st0" d="M110,10C54.8,10,10,54.8,10,110s44.8,100,100,100c55.3,0,100-44.8,100-100S165.3,10,110,10z
		 M163,149.7c0,9.3-4,15.3-13.2,15.3c-26.7,0-53.2,0-80,0c-8.9,0-14.8-6.1-14.8-15.2c0-13.3,0-26.6,0-39.8c0-13.3,0-26.4,0-39.5
		C55,61,60.8,57,70.3,57c26.5,0,53,0,79.5,0c9.2,0,13.2,4,13.2,13.2C163,96.7,163,123.2,163,149.7z"/>
</g>
</svg>
