<?xml version="1.0" encoding="utf-8"?>
<!-- Generator: Adobe Illustrator 19.0.0, SVG Export Plug-In . SVG Version: 6.00 Build 0)  -->
<svg version="1.1" id="Capa_1" xmlns="http://www.w3.org/2000/svg" xmlns:xlink="http://www.w3.org/1999/xlink" x="0px" y="0px"
	 viewBox="0 0 610 609" style="enable-background:new 0 0 610 609;" xml:space="preserve">
<style type="text/css">
	.st0{fill:#FFD900;}
	.st1{clip-path:url(#XMLID_161_);}
	.st2{fill:#E2D0C1;}
	.st3{fill:#BC9E8E;}
	.st4{fill:#606060;}
	.st5{fill:#393634;}
	.st6{fill:#E2D0C1;stroke:#BC9E8E;stroke-width:2;stroke-miterlimit:10;}
	.st7{fill:#48352D;}
	.st8{fill:#2F2621;}
	.st9{fill:#FFFFFF;stroke:#211915;stroke-width:3;stroke-miterlimit:10;}
</style>
<g id="XMLID_2_">
	<g id="XMLID_92_">
		<path id="XMLID_93_" class="st0" d="M305.9,602.4c-79.9,0-155-31.1-211.4-87.6S6.9,383.3,6.9,303.4S38,148.5,94.5,92
			S226.1,4.4,305.9,4.4c79.9,0,155,31.1,211.4,87.6s87.6,131.6,87.6,211.4s-31.1,155-87.6,211.4S385.8,602.4,305.9,602.4z
			 M305.9,36.4c-147.2,0-267,119.8-267,267s119.8,267,267,267c147.2,0,267-119.8,267-267S453.2,36.4,305.9,36.4z"/>
	</g>
	<g id="XMLID_3_">
		<defs>
			<circle id="XMLID_4_" cx="305.9" cy="303.4" r="268"/>
		</defs>
		<clipPath id="XMLID_161_">
			<use xlink:href="#XMLID_4_"  style="overflow:visible;"/>
		</clipPath>
		<g id="XMLID_5_" class="st1">
			<g id="XMLID_77_">
				<g id="XMLID_87_">
					<path id="XMLID_91_" class="st2" d="M92.5,676.2c-7.3-0.6-21-2.3-28.2-4.2c-8.1-2.1-15.6-2.6-27,0.1c-6.3,1.5-12,7.3-13.9,8.2
						c-6.4,3-6.9,5.2-6.9,5.2c-2.7,2.5-11.3,6.4-14.9,7.4c-16.6,4.6-34.6,6.3-50,14c-0.3,0.1-0.5,0.4-0.6,0.7c-1,3.1,1,6.2,3.5,8.2
						c7.5,6.1,18.6,4.9,27.8,1.8s18.3-7.6,28-7.2c0,0,1.6,21.1,4.8,23.5c3.3,2.5,4.9,6.5,6.9,10.1s4.8,7.3,8.9,7.9
						c1.6,0.2,3.2,0,4.8,0.2c1.6,0.2,3.3,1.2,3.5,2.8c0.2,1,15.3,5.9,21,2.5c5.7-3.3,17.8-8.8,17.7-9.1c-0.1-0.3,0.1-0.5,0.4-0.7
						c2.8-2.3,6.3-3.3,9.6-4.8c3.2-1.5,6.5-3.9,7.3-7.4c0.6-2.5-0.1-5.1-0.1-7.6c0-2.5,1-5.5,3.5-6.2
						C98.5,721.7,147.1,680.8,92.5,676.2z"/>
					<path id="XMLID_88_" class="st3" d="M92.5,676.4c-6.7-0.6-13.4-1.4-20.1-2.4c-1.7-0.3-3.3-0.6-5-0.9c-1.7-0.3-3.3-0.8-4.9-1.1
						c-3.3-0.7-6.6-1.2-9.9-1.2c-3.3,0-6.7,0.3-9.9,1c-1.6,0.3-3.3,0.7-4.9,1.1c-0.3,0.1-0.8,0.2-1.2,0.3c-0.4,0.1-0.7,0.3-1.1,0.4
						c-0.7,0.3-1.5,0.7-2.2,1.1c-1.4,0.8-2.8,1.7-4.1,2.7c-1.3,1-2.6,2.1-3.9,3.2c-0.4,0.3-0.7,0.5-1.2,0.8l-1.1,0.6
						c-0.7,0.4-1.4,0.8-2.1,1.3c-0.7,0.4-1.3,0.9-1.8,1.4c-0.3,0.2-0.5,0.5-0.7,0.8c-0.1,0.1-0.2,0.3-0.3,0.4c0,0.1-0.1,0.1-0.1,0.2
						c0,0,0,0,0,0c0,0,0,0.1,0-0.1l-0.4,0.7c-1.2,1.2-2.5,2-3.7,2.8c-1.3,0.8-2.6,1.5-3.9,2.2c-2.6,1.3-5.2,2.6-8.2,3.5
						c-2.7,0.8-5.6,1.6-8.3,2.4l-8.4,2.1c-11.1,2.7-22.1,5.5-31.7,10.7l0,0c-0.1,0,0.1,0,0,0c0,0-0.1,0,0,0c0.1-0.1,0.2-0.1,0.2-0.1
						c0.1-0.1,0.2-0.2,0.4-0.3c0.1-0.1,0.2-0.3,0.3-0.4c0-0.1,0.1-0.2,0.1-0.3l0.1-0.1l0-0.1c0.1-0.4,0-0.1,0.1-0.2l-0.1,0.5
						c0,0.1,0,0,0,0c0,0.2,0,0.5,0.1,0.8c0.2,0.6,0.7,1.4,1.4,2.1c0.3,0.3,0.8,0.7,1.1,0.9c0.7,0.5,0.9,0.6,1.4,1c1,0.6,2,1,3.1,1.4
						c4.4,1.4,9.6,1,14.7-0.3c1.3-0.3,2.5-0.7,3.8-1.1l1.9-0.7l2-0.7c2.6-1,5.3-2,8.1-3c2.8-1,5.7-1.9,8.8-2.6
						c3.1-0.7,6.3-1.1,9.7-0.9l4,0.2l0.3,4c0.2,2.7,0.5,5.6,0.8,8.3c0.3,2.8,0.7,5.5,1.3,8.1c0.3,1.3,0.6,2.6,0.9,3.5
						c0.1,0.4,0.4,0.9,0.3,0.7c0,0-0.2-0.2-0.4-0.4l0.5,0.4l0.2,0.2l0.3,0.3c0.2,0.2,0.4,0.4,0.6,0.6c2.7,2.8,4.1,5.8,5.4,8.4
						c1.2,2.5,2.4,4.7,3.8,6.1c0.7,0.7,1.4,1.2,2.1,1.5c0.2,0,0.3,0.1,0.5,0.2c0.1,0,0.2,0.1,0.2,0.1l0.3,0c0.4,0,1,0.1,1.8,0.1
						c0.8,0,1.7,0,2.8,0.2c1.2,0.2,2.3,0.6,3.4,1.4c1.1,0.7,2.3,1.9,2.8,3.7c0.1,0.2,0.1,0.4,0.2,0.6l0,0.2
						c-0.3-1.2-0.1-0.3-0.2-0.6c0-0.1,0.1,0.2,0-0.1c-0.1-0.2-0.2-0.4-0.3-0.6c-0.1-0.2-0.4-0.4-0.3-0.4c-0.1-0.1-0.1-0.1-0.2-0.2
						c-0.4-0.3-0.3-0.2-0.3-0.2c0.1,0.1,0.4,0.2,0.6,0.3c2.2,1,4.9,1.8,7.5,2.3c2.6,0.5,5.3,0.8,7.4,0.6c0.5-0.1,1-0.2,1.4-0.3
						l0.2-0.1l0.4-0.2l1-0.5c1.3-0.7,2.6-1.3,4-1.9c2.6-1.2,5.3-2.4,7.9-3.6l3.9-1.8l0.4-0.2l0.2-0.1c0,0,0.1-0.1-0.1,0.1
						c-0.1,0.1,0,0-0.2,0.2c-0.2,0.5-0.2-0.4-0.6,1.6c0.2,1.4,0.1,0.4,0.1,0.7l0-0.1c-0.1-0.5-0.1-0.8-0.1-1.1
						c0.1-0.6,0.3-1,0.5-1.3c0.2-0.3,0.4-0.4,0.5-0.6c0.1-0.1,0.4-0.3,0.4-0.3l0.4-0.3l0.6-0.4c0.4-0.2,0.7-0.4,1.1-0.6
						c2.8-1.6,5.7-2.4,8.1-3.4c2.4-1.1,4.6-2.5,5.8-4.5c0.3-0.5,0.5-1,0.6-1.5c0.1-0.4,0.1-0.5,0.2-0.9c0-0.3,0.1-0.6,0.1-0.9
						c0-1.3-0.1-2.7-0.2-4.2c-0.1-1.6,0.1-3.3,0.7-4.8c0.3-0.8,0.8-1.6,1.4-2.2c0.6-0.7,1.5-1.2,2.4-1.4l-0.5,0.3
						c1.1-0.9,2.2-1.8,3.3-2.8c1.1-1,2.1-2,3.2-3c2.1-2,4-4.2,5.8-6.4c1.8-2.2,3.5-4.6,4.9-7.1c1.4-2.5,2.5-5.2,3-8
						c0.2-1.4,0.2-2.8-0.1-4.2c-0.3-1.4-0.8-2.7-1.6-3.8c-1.6-2.3-4.1-4-6.7-5.2c-1.3-0.6-2.7-1.1-4.1-1.5c-1.4-0.4-2.8-0.8-4.2-1.1
						C98.3,677.1,95.4,676.7,92.5,676.4z M92.5,675.9c2.9,0.3,5.8,0.6,8.7,1.2c1.4,0.3,2.9,0.6,4.3,1c1.4,0.4,2.8,0.9,4.1,1.5
						c2.7,1.2,5.3,2.9,7,5.3c1.8,2.4,2.3,5.6,1.9,8.6c-0.4,3-1.5,5.7-2.9,8.3c-1.4,2.6-3.1,5-4.9,7.4c-1.8,2.3-3.7,4.5-5.8,6.6
						c-2,2.1-4.1,4.2-6.4,6.1l-0.1,0l-0.1,0c-1.3,0.4-2.2,1.5-2.7,2.8c-0.5,1.3-0.6,2.7-0.5,4.1c0.1,1.4,0.3,2.8,0.3,4.3
						c0,1.5-0.3,3-1,4.3c-1.5,2.6-4.1,4.4-6.6,5.6c-2.6,1.2-5.4,2.1-7.8,3.6c-0.6,0.4-1.2,0.7-1.7,1.2c-0.1,0.1-0.2,0.2-0.3,0.3
						c0,0,0,0.1,0,0.1c0,0,0,0,0,0c0,0,0,0,0,0c0,0.1,0-0.1,0,0.1c-0.1,0.3-0.1,0.2-0.1,0.3c0,0,0,0-0.1,0.1c-0.4,0.3-0.7,0.4-1,0.6
						c-1.3,0.7-2.6,1.3-3.9,1.9c-2.6,1.3-5.2,2.5-7.7,3.8c-1.3,0.7-2.5,1.3-3.8,2c-0.6,0.3-1.2,0.7-1.9,1.1
						c-0.7,0.3-1.4,0.5-2.2,0.6c-2.9,0.5-5.9,0.2-8.7-0.3c-2.9-0.5-5.7-1.2-8.4-2.3c-0.3-0.1-0.7-0.3-1-0.5
						c-0.2-0.1-0.3-0.2-0.5-0.3l-0.1-0.1c0,0-0.1-0.1-0.1-0.2c0-0.1,0,0-0.1-0.2l0-0.1c0-0.1,0-0.1-0.1-0.2
						c-0.2-0.6-0.6-1.1-1.2-1.4c-1.1-0.7-2.5-0.8-3.9-0.8c-0.7,0-1.4,0-2.2,0c-0.7,0-1.5-0.2-2.2-0.5c-1.4-0.5-2.7-1.4-3.8-2.4
						c-2.1-2.1-3.6-4.7-4.9-7.2c-1.3-2.5-2.6-5.1-4.6-7.1c-0.3-0.2-0.5-0.5-0.8-0.7l-0.4-0.3c-0.2-0.1-0.3-0.3-0.5-0.5
						c-0.5-0.7-0.8-1.3-1.1-2c-0.5-1.4-0.9-2.8-1.2-4.2c-0.6-2.8-1-5.7-1.4-8.5c-0.4-2.9-0.7-5.7-0.9-8.6l0.5,0.5
						c-5.6-0.2-11.2,1.2-16.6,3.1c-5.4,1.8-10.7,4.2-16.3,5.4c-2.8,0.6-5.7,1.1-8.6,1.1c-2.9,0-5.8-0.3-8.6-1.2
						c-2.8-0.9-5.4-2.4-7.4-4.6c-1-1.1-1.8-2.4-2.2-3.9c-0.2-0.7-0.3-1.5-0.2-2.3c0-0.4,0.1-0.8,0.2-1.1c0.1-0.5,0.5-0.9,0.9-1.1
						c2.6-1.2,5.2-2.4,7.9-3.4c2.7-1,5.4-1.9,8.2-2.6c2.8-0.8,5.6-1.4,8.3-2.1l8.4-1.8c5.6-1.2,11.2-2.4,16.7-3.9
						c2.7-0.7,5.3-1.9,7.9-3.1c2.5-1.2,5.2-2.5,7.3-4.3l-0.1,0.2c0.4-1,1.1-1.5,1.7-2.1c0.7-0.6,1.4-1.1,2.1-1.5
						c0.7-0.5,1.5-0.9,2.2-1.3l1.1-0.6c0.3-0.2,0.7-0.4,1-0.7c1.3-1,2.7-2.1,4-3c1.4-1,2.8-1.9,4.3-2.7c1.5-0.8,3.1-1.5,4.8-1.8
						c1.6-0.4,3.3-0.7,5-1c3.3-0.6,6.7-0.9,10.1-0.8c3.4,0.1,6.8,0.6,10.1,1.3c1.6,0.4,3.3,0.8,4.9,1.2c1.6,0.3,3.3,0.6,5,0.9
						C79.1,674.5,85.8,675.3,92.5,675.9z"/>
				</g>
				<path id="XMLID_86_" class="st3" d="M23.3,692.9c0,0,0.1,0.6,0.4,1.5c0.1,0.5,0.3,1,0.5,1.6c0.2,0.6,0.5,1.3,0.8,2.1
					c0.3,0.7,0.7,1.5,1.1,2.3c0.4,0.8,0.9,1.6,1.4,2.4c0.5,0.8,1.2,1.5,1.7,2.3c0.6,0.7,1.3,1.5,2.1,2.1c0.7,0.7,1.5,1.3,2.3,1.8
					c0.4,0.3,0.9,0.5,1.3,0.8c0.4,0.3,0.8,0.5,1.3,0.7c0.9,0.4,1.7,0.9,2.6,1.3c0.8,0.4,1.7,0.8,2.4,1.2c1.5,0.7,2.8,1.4,3.6,2
					c0.4,0.3,0.8,0.5,1,0.7c0.2,0.2,0.3,0.2,0.3,0.2l-0.1,0.2c0,0-2.1-0.7-5.3-1.7c-1.6-0.5-3.5-1.1-5.4-1.9c-1-0.4-2-0.9-2.9-1.5
					c-0.9-0.6-1.9-1.3-2.7-2c-1.7-1.5-3.1-3.3-4.1-5.2c-0.5-0.9-0.9-1.9-1.3-2.8c-0.3-0.9-0.6-1.8-0.8-2.6c-0.2-0.8-0.3-1.6-0.4-2.3
					c-0.1-0.7-0.1-1.3-0.1-1.8c0-1,0.1-1.5,0.1-1.5L23.3,692.9z"/>
				<path id="XMLID_85_" class="st3" d="M63.4,716.7c0,0,0.1,0,0.2-0.1c0.1-0.1,0.2-0.2,0.2-0.4c0-0.2,0-0.5-0.1-0.8
					c-0.1-0.3-0.4-0.7-0.6-1.1c-0.2-0.4-0.5-0.8-0.8-1.3c-0.3-0.5-0.6-0.9-1-1.4c-0.7-0.9-1.5-1.9-2.4-2.8c-0.4-0.5-0.9-0.9-1.4-1.3
					c-0.5-0.4-1-0.8-1.4-1.2c-0.8-0.9-1.5-1.8-2-2.7c-0.5-0.9-0.9-1.6-1.1-2.2c-0.2-0.6-0.3-1-0.3-1l0.3-0.3c0,0,1.5,0.3,3.3,1.3
					c0.9,0.5,1.9,1.2,2.8,2.1c0.9,1,1.5,2.2,2.3,3.3c0.4,0.6,0.7,1.2,1.1,1.8c0.3,0.6,0.6,1.2,0.9,1.8c0.3,0.6,0.5,1.2,0.7,1.7
					c0.2,0.6,0.4,1.1,0.5,1.6c0.1,0.5,0.2,0.9,0.3,1.4c0,0.5,0,0.9-0.2,1.2c-0.1,0.3-0.4,0.6-0.6,0.6c-0.2,0.1-0.3,0-0.3,0.1
					L63.4,716.7z"/>
				<path id="XMLID_84_" class="st3" d="M70.4,716.4c0,0,0.4-0.1,0.8-0.2c0.5-0.1,1.1-0.3,1.6-0.6c0.3-0.1,0.5-0.4,0.7-0.5
					c0.2-0.1,0.5,0,0.7,0.1c0.5,0.1,1.1,0.5,1.1,0.5l0.1,0.2c0,0,0,0.7-0.4,1.2c-0.2,0.3-0.5,0.5-0.8,0.6c-0.4,0.1-0.8,0-1.2-0.1
					c-0.8-0.1-1.5-0.3-2-0.5c-0.5-0.2-0.8-0.5-0.8-0.5L70.4,716.4z"/>
				<path id="XMLID_83_" class="st3" d="M20.6,730.2c0,0,0.3,0,0.8,0c0.5,0,1.2-0.1,2.1-0.2c1.7-0.2,3.9-0.4,6.1-0.6
					c1.1-0.1,2.2-0.2,3.2-0.3c0.5-0.1,1-0.1,1.5-0.2c0.5-0.1,0.9-0.1,1.3-0.2c0.4-0.1,0.8-0.1,1.1-0.2c0.3-0.1,0.7-0.1,0.9-0.2
					c0.5-0.1,0.8-0.2,0.8-0.2s-0.2,0.2-0.5,0.6c-0.2,0.2-0.4,0.4-0.7,0.6c-0.3,0.3-0.6,0.5-1,0.7c-0.8,0.5-1.8,0.9-2.9,1.2
					c-0.5,0.1-1.1,0.3-1.7,0.4c-0.6,0.1-1.2,0.2-1.8,0.2c-2.4,0.2-4.8,0-6.5-0.5c-0.9-0.2-1.6-0.5-2.1-0.8
					C20.8,730.3,20.6,730.2,20.6,730.2z"/>
				<path id="XMLID_82_" class="st3" d="M34.8,747.9c0,0,0.3,0,1-0.1c0.6-0.1,1.5-0.2,2.5-0.4c1-0.2,2.2-0.5,3.4-0.9
					c1.2-0.4,2.5-0.9,3.7-1.4c0.6-0.3,1.2-0.6,1.8-0.9c0.6-0.3,1.1-0.7,1.7-1c1.1-0.6,2.2-1.1,3.1-1.5c0.9-0.4,1.7-0.8,2.3-1
					c0.6-0.2,0.9-0.4,0.9-0.4l0.2,0.2c0,0-0.7,1.4-2.3,2.9c-0.4,0.4-0.8,0.8-1.4,1.1c-0.5,0.4-1.1,0.7-1.7,1.1c-1.2,0.6-2.6,1-4,1.5
					c-1.4,0.4-2.8,0.7-4.1,1c-0.7,0.1-1.3,0.2-1.9,0.3c-0.6,0.1-1.2,0.1-1.7,0.1c-1.1,0-2,0-2.6,0c-0.6,0-1-0.1-1-0.1L34.8,747.9z"
					/>
				<path id="XMLID_81_" class="st3" d="M74.4,743.3c0,0-0.1-0.3-0.3-0.7c-0.1-0.4-0.3-1-0.6-1.7c-0.1-0.3-0.3-0.6-0.4-0.9
					c-0.1-0.2-0.3-0.5-0.5-0.7c-0.2-0.2-0.3-0.3-0.5-0.4c-0.1,0-0.3-0.1-0.6-0.3c-0.4-0.2-0.8-0.3-1.2-0.5c-0.4-0.2-0.8-0.4-1.2-0.6
					c-0.4-0.2-0.8-0.4-1.1-0.6c-0.4-0.2-0.7-0.4-1-0.6c-0.6-0.4-1.1-0.8-1.5-1.2c-0.4-0.3-0.6-0.5-0.6-0.5l0-0.2c0,0,1,0.1,2.4,0.4
					c1.4,0.3,3.3,0.9,5.2,1.6c0.5,0.2,0.9,0.5,1.3,0.8c0.4,0.4,0.6,0.8,0.8,1.3c0.4,0.9,0.4,1.8,0.4,2.6c-0.1,0.7-0.2,1.4-0.3,1.8
					c-0.1,0.4-0.2,0.7-0.2,0.7L74.4,743.3z"/>
				<path id="XMLID_80_" class="st3" d="M75,730.7c0,0-0.4-0.6-1-1.3c-0.6-0.8-1.5-1.7-2.4-2.6c-0.5-0.4-1-0.8-1.4-1.2
					c-0.4-0.4-0.7-0.9-1-1.3c-0.2-0.4-0.4-0.8-0.5-1.2c-0.1-0.3-0.2-0.5-0.2-0.5l0.2-0.2c0,0,0.9-0.1,1.9,0.4c0.5,0.2,1,0.5,1.5,1
					c0.4,0.5,0.8,1.2,1.1,1.7c0.7,1.2,1.3,2.5,1.6,3.4c0.3,1,0.5,1.6,0.5,1.6L75,730.7z"/>
				<path id="XMLID_79_" class="st3" d="M23.4,688.4c0,0,0.1-0.3,0.3-0.9c0.2-0.5,0.6-1.3,1.1-2.1c0.5-0.8,1.2-1.6,2-2.5
					c0.4-0.4,0.8-0.8,1.3-1.2c0.5-0.4,1-0.7,1.5-1.1c1-0.7,2.1-1.3,3.2-1.7c0.5-0.2,1.1-0.4,1.6-0.6c0.5-0.2,1-0.3,1.5-0.4
					c0.9-0.2,1.7-0.3,2.3-0.3c0.6,0,0.9,0,0.9,0l0.1,0.2c0,0-1.1,0.5-2.6,1.4c-1.6,0.8-3.6,2.1-5.5,3.4c-2,1.3-3.8,2.8-5.2,3.9
					c-1.4,1.1-2.2,1.9-2.2,1.9L23.4,688.4z"/>
				<path id="XMLID_78_" class="st3" d="M46.1,717.3c0,0,0.9,0.5,2.3,1.4c0.7,0.4,1.5,0.9,2.4,1.4c0.4,0.3,0.9,0.5,1.3,0.8
					c0.4,0.3,0.9,0.5,1.3,0.8c0.9,0.5,1.9,0.8,2.7,1.1c0.4,0.1,0.7,0.3,1,0.4c0.1,0,0.2,0.1,0.3,0.1c0,0,0.2,0,0.3,0
					c0.5-0.1,1.1-0.5,1.5-0.7c0.4-0.3,0.7-0.4,0.7-0.4l0.2,0.1c0,0,0,0.3-0.1,0.8c-0.1,0.3-0.2,0.6-0.3,0.9
					c-0.2,0.3-0.4,0.7-0.9,1.1c-0.3,0.2-0.5,0.3-0.9,0.5c-0.2,0.1-0.7,0.2-1,0.2c-0.7,0-1.2-0.2-1.8-0.4c-1.1-0.4-2-1.2-2.9-1.9
					c-0.4-0.4-0.9-0.7-1.3-1.1c-0.4-0.4-0.8-0.7-1.1-1.1c-0.7-0.7-1.4-1.3-2-1.9c-1.2-1.1-1.9-1.9-1.9-1.9L46.1,717.3z"/>
			</g>
			<g id="XMLID_67_">
				<path id="XMLID_76_" class="st4" d="M116.9,652.3c-8.6,3.9-17.1,8.2-25.4,12.7c16.6,18.4,25.7,43.5,28.5,52.3
					c10.9-3.4,21.6-7.2,32-11.5C144.1,680.5,124.6,659.8,116.9,652.3z"/>
				<path id="XMLID_75_" class="st4" d="M153.8,635.7c-6.6,3.4-13.5,6.7-20.8,9.7c18.9,19.4,28.5,47.9,30.8,55.4
					c8.4-3.8,16.6-7.9,24.7-12.3C181.8,664,163,644.2,153.8,635.7z"/>
				<path id="XMLID_74_" class="st4" d="M77.4,673.1c-0.7,0.4-1.4,0.8-2.1,1.2c15.7,11.1,16.8,32.6,27.6,47.9c1.8-0.5,3.5-1,5.3-1.4
					C100.8,699.7,85.9,682,77.4,673.1z"/>
				<path id="XMLID_73_" class="st4" d="M242.4,617.7c-5.5-8.2-10.9-10.5-21.2-13.3c-2.2-0.6-5.3,0.1-8.1,1
					c20.3,16.1,29,42.4,30.2,46.5c1.6-1.4,2.9-2.6,3.9-3.8C255.9,637.9,248,625.9,242.4,617.7z"/>
				<path id="XMLID_72_" class="st4" d="M193.1,614.5c-7.4,3.8-14.9,8-22.6,12.2c19.3,18.7,28.3,46.5,30.6,54.4
					c7-4.3,14-8.8,20.8-13.6c2.6-1.8,5.5-3.8,8.4-5.9C224.1,637.9,202.7,621,193.1,614.5z"/>
				<path id="XMLID_71_" class="st5" d="M213.1,605.5c-1.7,0.6-3.3,1.2-4.4,1.7c-5.2,2.2-10.4,4.7-15.6,7.4
					c9.6,6.5,31,23.4,37.2,47.1c4.7-3.3,9.5-6.7,13-9.7C242.1,647.8,233.5,621.6,213.1,605.5z"/>
				<path id="XMLID_70_" class="st5" d="M170.6,626.7c-5.5,3-11,6-16.8,9c9.2,8.5,28,28.2,34.7,52.7c4.3-2.3,8.5-4.8,12.7-7.3
					C198.9,673.3,189.8,645.5,170.6,626.7z"/>
				<path id="XMLID_69_" class="st5" d="M133,645.4c-0.5,0.2-0.9,0.4-1.4,0.6c-5,2-9.9,4.1-14.8,6.3c7.7,7.4,27.3,28.1,35.2,53.5
					c3.9-1.6,7.8-3.3,11.7-5C161.4,693.3,151.8,664.8,133,645.4z"/>
				<path id="XMLID_68_" class="st5" d="M91.5,665c-4.7,2.6-9.4,5.3-14.1,8.1c8.5,8.9,23.4,26.6,30.8,47.6c4-1.1,7.9-2.2,11.8-3.5
					C117.2,708.5,108,683.4,91.5,665z"/>
			</g>
			<g id="XMLID_54_">
				<path id="XMLID_66_" class="st4" d="M225.5,552.3c-2.7,5.2-5.6,10.4-8.5,15.5c11.5,11.5,32.5,29.2,56.6,34.5
					c3-4.9,5.9-10,8.6-15c1.5-2.8,2.9-5.6,4.4-8.4C272.2,577.6,248.2,572.3,225.5,552.3z"/>
				<path id="XMLID_65_" class="st4" d="M242.6,513.4c-2.7,7.5-5.7,14.9-9,22.2c14,10.8,36.8,25,60.7,27.2
					c3.7-8.1,7.2-16.3,10.4-24.5C289,537.2,265.5,532.2,242.6,513.4z"/>
				<path id="XMLID_64_" class="st4" d="M317.9,434.1c-0.5-0.9-0.9-1.9-1.4-2.8c-5-9-5-21.8-19.8-23.5c-8.4-1-15.6,5.3-20.9,12.5
					C285.5,425.2,301.2,431.8,317.9,434.1z"/>
				<path id="XMLID_63_" class="st4" d="M208.1,582.8c-2.5,4.2-5.1,8.5-7.6,12.7c-1,1.6-1.9,3.4-2.1,5.2
					c11.4,10.8,29.7,25.4,50.7,31c5.6-4.6,10.6-9.9,15-15.7C250.2,613.1,227.3,605,208.1,582.8z"/>
				<path id="XMLID_62_" class="st4" d="M255.8,470.7c-0.3,1.1-0.6,2.1-0.9,3.2c-2,7.4-4.2,14.7-6.5,22
					c13.1,9.1,37.3,23.3,62.4,25.4c0.3-0.9,0.7-1.8,1-2.8c3.2-9.3,6.3-19.1,8.6-29C303.9,490.3,280.3,487.2,255.8,470.7z"/>
				<path id="XMLID_61_" class="st4" d="M268.1,433.4c-3.1,6.6-5.5,13.5-7.6,20.5c12.3,6.5,37.5,17.8,62.9,18.1
					c0.7-7.2,0.7-14.3-0.4-21.1C308.4,450.8,288.6,447.4,268.1,433.4z"/>
				<path id="XMLID_60_" class="st5" d="M323,450.8c-0.9-5.8-2.5-11.4-5.1-16.7c-16.7-2.3-32.4-9-42.1-13.9c-1.1,1.5-2.1,2.9-3,4.4
					c-1.7,2.8-3.3,5.8-4.7,8.8C288.6,447.4,308.4,450.8,323,450.8z"/>
				<path id="XMLID_59_" class="st5" d="M260.5,453.9c-1.7,5.6-3.2,11.2-4.7,16.8c24.5,16.4,48.1,19.5,64.6,18.9
					c1.4-5.9,2.4-11.8,3-17.7C298,471.7,272.8,460.4,260.5,453.9z"/>
				<path id="XMLID_58_" class="st5" d="M248.5,495.9c-1.8,5.8-3.8,11.6-5.9,17.4c22.9,18.9,46.5,23.9,62.1,24.8
					c2.2-5.6,4.2-11.1,6.2-16.8C285.7,519.3,261.6,505,248.5,495.9z"/>
				<path id="XMLID_57_" class="st5" d="M233.6,535.5c-1,2.2-1.9,4.3-3,6.4c-1.7,3.5-3.4,6.9-5.2,10.3c22.7,20,46.7,25.3,61.1,26.5
					c2.7-5.3,5.3-10.7,7.8-16.1C270.4,560.5,247.6,546.3,233.6,535.5z"/>
				<path id="XMLID_56_" class="st5" d="M216.9,567.8c-2.9,5-5.8,10.1-8.8,15c19.2,22.1,42.1,30.2,56,33.2c3.4-4.4,6.5-9,9.5-13.7
					C249.4,597,228.4,579.3,216.9,567.8z"/>
				<path id="XMLID_55_" class="st5" d="M198.4,600.8c-0.1,0.7,0,1.3,0.1,2c0.4,1.6,1.7,2.9,2.8,4.1c9.8,9.9,19.6,19.7,29.5,29.6
					c1.2,1.2,2.6,2.5,4.3,2.9c2.2,0.5,4.4-0.7,6.3-1.9c2.7-1.7,5.3-3.6,7.8-5.7C228.1,626.2,209.7,611.6,198.4,600.8z"/>
			</g>
			<g id="XMLID_45_">
				<path id="XMLID_53_" class="st4" d="M366.8,379.3c19.4-3.2,36.8,12.2,46.3,28.3c25.7,43.4,20.3,96.3,15.8,145.8
					c-3.9,42.7-6.6,85.4-8.2,128.3c-0.4,10.8-0.7,21.9,2.5,32.3s10.5,20.3,21.3,24.2c-15.2,18.3-39.4,28.6-63.9,32.3
					s-49.4,1.3-74-1.8c-39.1-4.9-78.4-11.8-114.2-27.4c48-92.9,44.7-201.7,78.8-299.8c6.7-19.2,18.3-40.7,39.5-43.8L366.8,379.3z"/>
				<g id="XMLID_46_">
					<path id="XMLID_52_" class="st5" d="M235,603.7c-2.1,10.9-4.3,21.8-6.7,32.6c24.9,13.4,90.6,36.5,195.2-13.4
						c0.4-6.8,0.9-13.6,1.3-20.5C374.3,613.3,285,627.2,235,603.7z"/>
					<path id="XMLID_51_" class="st5" d="M431.7,470.6c-0.6-6.8-1.5-13.5-2.8-20.1c-33.5,9.2-118.9,28.7-162,3.6
						c-2.8,9-5.4,18-7.7,27.1C283.1,494.5,341.1,514.6,431.7,470.6z"/>
					<path id="XMLID_50_" class="st5" d="M429.7,543.7c0.6-6.3,1.1-12.6,1.6-19c-46.2,9.9-131.7,23.7-182.6,4.6
						c-1.4,7-2.7,14-3.9,21C262.6,563,325,596.2,429.7,543.7z"/>
					<path id="XMLID_49_" class="st5" d="M412.5,406.6c-9.7-15.8-26.7-30.5-45.7-27.4l-56,18.5c-11.2,1.6-19.7,8.3-26.2,17.1
						C304,426.5,346.9,441.6,412.5,406.6z"/>
					<path id="XMLID_48_" class="st5" d="M290.6,766.4c5.3,0.8,10.6,1.5,16,2.1c24.5,3.1,49.5,5.4,74,1.8
						c16.9-2.5,33.7-8.3,47.5-17.6C392.9,758.6,340.6,765.7,290.6,766.4z"/>
					<path id="XMLID_47_" class="st5" d="M420.8,702.1c-0.7-6.8-0.5-13.7-0.2-20.6c0-0.7,0.1-1.5,0.1-2.2
						c-48.7,10-148.6,26.1-205,4.6c-2.5,7.9-5.2,15.7-8.2,23.5C233.9,719.9,305.7,743.3,420.8,702.1z"/>
				</g>
			</g>
			<path id="XMLID_44_" class="st6" d="M361.6,321c-1.7,19,10.3,36.1,16.8,54c0.8,2.1,1.5,4.3,1.4,6.5c-0.2,4.1-3,7.6-5.9,10.4
				c-16.5,16.1-42.7,21.5-64.2,13c1.3-6,0.8-12.4-1.5-18.1l-3.3-4.8c-6.3-12.5-7.6-27.5-3.5-40.9c4.1-13.4,13.4-25.1,25.6-32
				c3-1.7,6.2-3.1,9.6-3c7.6,0.3,12.3-23.6,18.7-19.6c0.9,0.6,8.9,17.3,7.9,16.8L361.6,321z"/>
			<g id="XMLID_36_">
				<path id="XMLID_43_" class="st4" d="M367.5,783.7c-2.4,4.6-4.8,10.4-1.9,14.7c1.3,2,3.6,3.3,5.8,4.4
					c19.4,10.3,39.3,19.7,59.6,28.3c26.8-48,53.8-96.9,65.8-150.6c2.7-12.2,4.4-25.9-2.1-36.6c-8.1-13.4-27.5-17.1-41.7-10.4
					c-14.2,6.7-25.3,18.1-30.9,32.8C407.4,705,391.4,738,367.5,783.7z"/>
				<g id="XMLID_37_">
					<path id="XMLID_42_" class="st5" d="M422.1,666.4c-0.7,1.8-1.4,3.6-2.1,5.3c12.3,6.8,50.2,25.7,73.8,20.7c1-3.9,2-7.9,2.9-11.9
						c0.2-0.7,0.3-1.4,0.4-2.1c-19-4-50.9-11.6-70.4-21.5C424.9,660,423.4,663.1,422.1,666.4z"/>
					<path id="XMLID_41_" class="st5" d="M479.8,734.2c1.5-3.7,2.9-7.5,4.3-11.2c-20.7-4.3-56.5-12.9-75.2-24.2
						c-1.8,4.2-3.6,8.3-5.5,12.5C416.5,719.3,456.7,741.5,479.8,734.2z"/>
					<path id="XMLID_40_" class="st5" d="M370.9,777.3c-1.1,2.1-2.2,4.2-3.3,6.4c-2.4,4.6-4.8,10.4-1.9,14.7c1.3,2,3.6,3.3,5.8,4.4
						c19.4,10.3,39.3,19.7,59.6,28.3c4-7.2,8-14.3,11.9-21.6C424.9,803.6,390.1,790.9,370.9,777.3z"/>
					<path id="XMLID_39_" class="st5" d="M458.6,778.2l-0.3,2.6c2.6-5.1,5.1-10.2,7.6-15.3c-20.1-5.1-56.3-15.5-74.9-27.8
						c-2.1,4.4-4.3,8.8-6.6,13.4C398.7,761.4,436.2,785.1,458.6,778.2z"/>
					<path id="XMLID_38_" class="st5" d="M497,648.9c-0.6-1.7-1.4-3.3-2.3-4.8c-8.1-13.4-27.5-17.1-41.7-10.4
						c-1.2,0.6-2.4,1.2-3.6,1.8C463.2,641.7,481.6,648.5,497,648.9z"/>
				</g>
			</g>
			<g id="XMLID_27_">
				<path id="XMLID_35_" class="st4" d="M496.5,622.8c-12.2-62.6-32.2-123.6-59.2-180.9c-7.6-16.2-26.1-36.7-43.1-34.5
					c-7.6,1-12.2,5.8-15.9,12.3c-3.8,6.5-7.2,26.2-7.3,28.4c-0.8,20.3,7.1,39.8,14.3,58.8c18.8,49.4,33.7,100.4,44.6,152.3
					c0,0,30.9,10.2,42.1,5.1s19.9-14.8,26.4-25.7L496.5,622.8z"/>
				<g id="XMLID_28_">
					<path id="XMLID_34_" class="st5" d="M476.5,543c-1.2-3.9-2.4-7.7-3.7-11.6c-17.5,6.2-43.3,11.8-75.6,8.9
						c2.1,6.1,4.1,12.2,6,18.3C419.6,559.6,455.3,559.7,476.5,543z"/>
					<path id="XMLID_33_" class="st5" d="M387,511.7c14.6,1.1,52.8,1.9,72.3-18.3c-1.7-4.3-3.4-8.6-5.1-12.9
						c-17.6,7.3-42.5,14-73.9,13.2c1.6,4.4,3.3,8.8,4.9,13.1C385.8,508.5,386.4,510.1,387,511.7z"/>
					<path id="XMLID_32_" class="st5" d="M372.3,466.4c13.1-0.2,47.7-2.4,66.8-20.5c-0.6-1.3-1.2-2.6-1.8-4
						c-1.5-3.1-3.3-6.3-5.5-9.5c-12.8,7.7-33.4,16.5-60.9,16.6C370.8,454.8,371.3,460.6,372.3,466.4z"/>
					<path id="XMLID_31_" class="st5" d="M406.6,409.5c-4.1-1.7-8.3-2.6-12.4-2c-7.6,1-12.2,5.8-15.9,12.3c-0.4,0.6-0.7,1.3-1,2.1
						C386.8,420.1,397.9,416.6,406.6,409.5z"/>
					<path id="XMLID_30_" class="st5" d="M498.2,638.6l-0.3-2.8c-18.8,4-43.5,6.2-72.8,2c1.2,5.3,2.4,10.6,3.6,16
						c17,2.3,44.2,3.6,63.9-6.8C494.6,644.3,496.5,641.5,498.2,638.6z"/>
					<path id="XMLID_29_" class="st5" d="M491,596.8c-1.2-5-2.4-10.1-3.7-15.1c-18.7,5.3-44.2,9.3-75.1,6.5c1.9,6.5,3.6,13,5.4,19.5
						C433.2,609.6,468.5,611.7,491,596.8z"/>
				</g>
			</g>
			<g id="XMLID_18_">
				<g id="XMLID_20_">
					<g id="XMLID_24_">
						<path id="XMLID_26_" class="st2" d="M352.4,308c-0.9,2.7-1.7,5.3-2.6,8c-5.6,17-11.6,34.8-24.3,47.4
							c-6.8,6.8-11.4,16.1-19.9,20.6c-11.3,6-33.7,8.9-45.7,7.6c-9.3-1-16.9-11.1-21.5-19.3c-8.1-14.5-19.4-27-29-40.6
							c-9.5-13.6-17.5-29.2-17.6-45.9c0-4.5,0.6-9.1-0.1-13.6c-1.7-12.2-12.2-23.2-9.1-35.1l1.3-11.7c2-7.7,10.3-11.9,14.2-18.8
							c4.6-8.2,2.4-19.2,7.6-27c2.7-4.1,7.1-6.7,11.5-9c22.4-11.7,48.2-16.7,73.3-14.1c6.6,0.7,13.2,1.8,19.7,3
							c9.3,1.7,18.8,3.4,26.8,8.5c7.5,4.8,12.9,12.1,17.9,19.5c15.8,23.3,29,49,32.7,76.9c0.7,5.1,1,10.3-0.2,15.3
							c-2.4,9.8-10.2,17.2-18.2,23.3c-4.8,3.6-11.2,7.1-16.5,4.2"/>
						<path id="XMLID_25_" class="st3" d="M352.7,308.1c-1.8,6.4-3.6,12.8-5.6,19.1c-2,6.3-4.3,12.6-7.2,18.7
							c-2.9,6-6.5,11.9-11.1,17l-3.4,3.7c-1,1.1-2,2.4-3,3.7c-2,2.6-3.9,5.3-6.2,7.9c-2.2,2.6-4.8,5.1-7.9,7.1l-1.2,0.7l-0.3,0.2
							l-0.1,0l-0.1,0.1l-0.1,0.1l-0.6,0.3c-0.8,0.4-1.4,0.7-2.3,1.1c-1.7,0.7-3.3,1.3-4.9,1.9c-6.5,2.2-13.2,3.4-19.9,4.3
							c-3.4,0.4-6.7,0.7-10.1,0.8c-0.8,0-1.7,0-2.6,0c-0.9,0-1.7,0-2.6,0c-0.9,0-1.7-0.1-2.6-0.1l-1.3-0.1l-1.4-0.2
							c-0.2,0-0.4-0.1-0.6-0.1l-0.8-0.2c-0.5-0.1-1-0.3-1.5-0.5c-0.9-0.4-1.8-0.7-2.6-1.2c-1.7-0.9-3.2-2-4.6-3.1
							c-2.8-2.3-5.1-5-7.2-7.8c-1-1.4-2-2.8-2.9-4.3c-0.4-0.7-0.9-1.5-1.3-2.2l-1.2-2.2c-0.8-1.5-1.6-2.8-2.5-4.2l-2.6-4.1
							c-3.5-5.5-7.4-10.8-11.4-16.1c-3.9-5.3-7.9-10.7-11.6-16.3c-3.7-5.6-7.1-11.4-9.8-17.5c-2.8-6.1-4.9-12.5-6-19.2
							c-0.6-3.3-0.8-6.7-0.8-10.1c0-3.4,0.4-6.7,0.2-9.9c-0.2-6.5-3.2-12.4-5.9-18.5c-1.4-3-2.7-6.1-3.5-9.5
							c-0.8-3.3-1.1-6.9-0.2-10.4l0,0.2l1.1-11.8l0-0.1l0-0.1c0.5-2,1.5-4,2.6-5.6c1.1-1.7,2.5-3.2,3.8-4.6c2.6-2.8,5.4-5.4,7.2-8.4
							l0.3-0.6c0-0.1,0.2-0.3,0.1-0.2l0.2-0.3c0.2-0.4,0.4-0.9,0.6-1.3c0.3-0.8,0.6-1.5,0.8-2.4c0.5-1.7,0.8-3.5,1.1-5.3
							c0.5-3.7,0.8-7.6,1.8-11.5c0.9-4,3.3-8,6.4-10.8c3.1-2.8,6.7-4.8,10.1-6.6l2.5-1.3l2.7-1.2c1.8-0.9,3.6-1.6,5.4-2.3
							c1.8-0.8,3.6-1.4,5.4-2.1c1.8-0.6,3.7-1.3,5.5-1.8c7.4-2.3,15.1-3.9,22.8-4.9c7.7-1,15.5-1.3,23.3-0.9
							c7.8,0.4,15.5,1.5,23,2.9c7.4,1.3,15.2,2.5,22.8,5.5c1.9,0.7,3.8,1.6,5.6,2.6c0.9,0.5,1.8,1,2.7,1.6c0.4,0.3,0.8,0.5,1.2,0.8
							l1.3,1c3.2,2.5,6.1,5.5,8.6,8.5c2.5,3.1,4.8,6.3,6.9,9.5l3.2,4.8l3.1,4.9c8,13.1,15.1,27,20,41.7c2.5,7.3,4.4,14.9,5.5,22.5
							c0.2,1.9,0.5,3.8,0.7,5.8c0.2,1.9,0.3,3.9,0.4,5.9c0.1,3.9-0.4,8.1-1.8,11.8c-2.9,7.8-8.6,13.4-14.6,18.2
							c-1.5,1.2-3.1,2.3-4.6,3.4c-1.6,1.1-3.3,2.1-5.1,2.9c-1.8,0.8-3.7,1.4-5.7,1.6c-2,0.2-4-0.2-5.7-1.2l0.3-0.6
							c1.7,0.8,3.5,1.1,5.3,0.7c1.8-0.3,3.5-1,5.2-1.8c3.3-1.7,6.1-4.2,9-6.7c2.8-2.5,5.5-5.1,7.7-8.1c2.2-2.9,4.1-6.1,5.2-9.5
							c2.3-6.9,1-14.3-0.4-21.7c-1.4-7.3-3.6-14.5-6.1-21.6c-2.6-7-5.7-13.9-9.1-20.5c-3.4-6.7-7.3-13.2-11.3-19.5l-3.1-4.7
							l-3.2-4.7c-2.1-3.1-4.3-6.1-6.6-8.9c-2.3-2.8-4.9-5.3-7.6-7.4l-1-0.7c-0.3-0.2-0.8-0.5-1.2-0.8c-0.7-0.4-1.4-0.9-2.2-1.3
							c-1.5-0.9-3.1-1.6-4.8-2.2c-6.6-2.6-14-3.8-21.5-5.2c-7.5-1.3-14.8-2.6-22.2-3.1c-7.4-0.5-14.9-0.3-22.2,0.5
							c-7.4,0.8-14.7,2.3-21.9,4.4c-1.8,0.5-3.6,1.1-5.3,1.7c-1.7,0.6-3.5,1.2-5.2,1.9c-1.7,0.7-3.5,1.4-5.1,2.1l-2.5,1.1l-2.6,1.2
							c-3.3,1.6-6.6,3.3-9.2,5.5c-2.6,2.2-4.3,5-5.3,8.4c-1,3.4-1.5,7.1-2.2,10.9c-0.3,1.9-0.8,3.9-1.4,5.8c-0.3,1-0.7,2-1.1,2.9
							c-0.2,0.5-0.4,0.9-0.7,1.3l-0.2,0.3l-0.1,0.2l-0.1,0.1l-0.1,0.2l-0.4,0.7c-2.3,3.5-5.3,6.1-7.9,8.7c-2.6,2.6-5,5.4-6,8.7
							l0-0.2l-1.5,11.7l0,0.1l0,0.1c-0.8,3-0.7,6.2,0,9.3c0.7,3.1,1.9,6.1,3.2,9.2c1.3,3,2.7,6.1,3.9,9.2l0.8,2.4
							c0.2,0.8,0.5,1.7,0.6,2.5c0.1,0.8,0.3,1.6,0.4,2.5c0.1,0.9,0.2,1.7,0.2,2.6c0.2,3.4-0.1,6.7-0.1,10c0,3.3,0.3,6.5,0.8,9.7
							c1.2,6.4,3.4,12.6,6.3,18.4c2.9,5.9,6.5,11.4,10.3,16.7c3.8,5.3,8,10.4,12.1,15.6c4.1,5.2,8.3,10.4,12.2,15.9
							c1,1.4,1.9,2.8,2.8,4.2c0.9,1.4,1.8,2.9,2.7,4.3l1.3,2.1c0.4,0.7,0.8,1.4,1.3,2c0.9,1.3,1.8,2.6,2.7,3.9
							c1.9,2.5,4,4.8,6.3,6.8c1.2,0.9,2.4,1.8,3.6,2.4c0.6,0.4,1.3,0.6,1.9,0.9c0.3,0.1,0.6,0.2,0.9,0.3l0.4,0.1
							c0.1,0,0.4,0.1,0.6,0.1l1.1,0.2l1.2,0.1c0.8,0.1,1.6,0.1,2.4,0.1c1.6,0.1,3.2,0.1,4.8,0c3.2-0.1,6.4-0.3,9.7-0.7
							c6.4-0.7,12.8-1.9,19-3.8c1.5-0.5,3-1,4.4-1.6c0.7-0.2,1.5-0.6,2.2-1l0.6-0.3l0.1-0.1c0.1,0,0,0,0,0l0.1,0l0.2-0.1l1-0.5
							c2.5-1.6,4.8-3.7,6.9-6c2.1-2.4,4.2-5,6.3-7.5c1.1-1.3,2.2-2.6,3.4-3.9l3.5-3.5c4.4-4.6,8.1-10,11.2-15.7
							c3.1-5.7,5.8-11.8,8.1-17.9c1.2-3.1,2.3-6.2,3.5-9.3l3.5-9.3L352.7,308.1z"/>
					</g>
					<g id="XMLID_21_">
						<path id="XMLID_23_" class="st7" d="M397.5,313.7c3.2-1.1,7.1,0.1,9,2.8c-5.5,6.6-15.9,8.4-23.4,4.2c0.3,5.2,2.5,10.2,6,14
							c-11,1.7-20.4-7.3-27.8-15.5c-1.6-1.8-3.3-3.6-3.8-6c-0.9-4.3,2.3-8.3,5.1-11.7c5.5-6.8,10.1-14.3,13.5-22.4
							c1-2.3,1.9-4.8,1.8-7.4c-0.3-8.7-11.4-13.1-13.9-21.4c-3,4-7.7,6.7-12.7,7.2c-4.1,2.5-6.4,7.6-5.5,12.3
							c-10.7-3.5-17.5-14.5-19.4-25.5s0.4-22.4,2.6-33.4c-8.1,2.1-15,8.2-18.2,16c0,0-2,6.4-6.4,0.1c-6.7-9.3,8.9-21.3,16.2-30.1
							c-8.1,2-15.2,7.7-18.9,15.2c-1.5,3.1-3.7,7.1-7.1,6.4c2.4-9.3,3.4-19,2.9-28.6c0,0,0.6,6.4-6.1,12.5
							c-11.3,10.2-24.9,19.2-40.1,19.9c5.8-3.2,10.5-8.4,13-14.5c-3.3,7.3-13,9.1-21,8.2s-16.3-3.4-23.9-0.8
							c-8.8,2.9-14.6,13-12.8,22.1c-5.2-10.5-6.7-22.9-4.1-34.4c-9.1,9.8-13.4,24-11.1,37.2c-11.5,3.7-23.4,6.1-35.4,7.1
							c-5.9,0.5-14.3-2.7-12.2-8.2c12.1-0.1,23.6-9,26.6-20.7c-4.2-1.2-8.2,2.3-12.4,3.5c-7.1,2-14.4-2.8-19.7-8
							c-5.3-5.2-10.4-11.4-17.6-13.1c13.8-1.1,25.2-14.9,23.6-28.6c0,0-3.1,1.8,2.9,0.1c5.9-1.6-3.1-12.9-8.9-14.9
							c9.5,0.1,19-3.6,25.9-10c-6.8-4.6-12.2-11.4-15.2-19c9,8.1,23.6,3.8,33-3.7c9.4-7.6,16.6-18.1,27.3-23.7
							c11.9-6.2,26.1-5.4,39.5-4.4c-4.7-8.6-5.8-19.2-2.8-28.6c-1.4,7.3,5,14.2,12.1,16.2s14.7,0.5,22-0.7c14.5-2.4,30-3.4,43.5,2.5
							c17.8,7.9,29.4,26.6,47.8,33.1c-1.2-5.8-2.5-11.6-3.7-17.5c15.9,8.1,22.6,26.8,22.5,44.6c-0.1,12.3,3.6,7.2,3.6,7.2
							c7.5-1.6,15.8,3.5,17.8,10.8c-3,2-6.7,3-10.2,2.7c6,6.4,7.2,15.8,8.1,24.5c1.4,13.4,2.8,27.6-2.8,39.9
							c-2.5,5.6-6.5,11-6.3,17.2c0.3,8.6,8.4,14.5,15.9,18.7c-3.7,1.5-7.7,2.3-11.7,2.5c3.4,16.9-4.2,33.8-11.6,49.3"/>
						<path id="XMLID_22_" class="st8" d="M397.4,313.5c0.4-0.1,0.8-0.3,1.3-0.3c0.4-0.1,0.9-0.1,1.3-0.1c0.9,0,1.8,0.1,2.6,0.4
							c1.7,0.5,3.2,1.5,4.3,3l0.2,0.3l-0.2,0.2l-1.1,1.2l-1.2,1.1l-1.3,1l-1.4,0.9l-1.5,0.8l-1.5,0.6l-1.6,0.5l-1.6,0.4l-1.6,0.2
							l-1.7,0.1l-1.7,0l-1.7-0.2l-1.6-0.3l-1.6-0.4l-1.6-0.6l-1.5-0.7l1.1-0.7c0.4,5,2.5,9.8,6,13.4l1.2,1.3l-1.8,0.3
							c-2.5,0.4-5,0.3-7.4-0.3c-2.4-0.6-4.7-1.5-6.8-2.7c-2.1-1.2-4.1-2.6-6-4.2c-1.9-1.5-3.6-3.2-5.3-4.9c-1.7-1.7-3.3-3.4-4.9-5.3
							c-0.8-1-1.6-2-2.1-3.3c-0.3-0.6-0.5-1.3-0.6-2l-0.1-0.4l0-0.6c0-0.4,0-0.7,0-1.1c0.2-2.8,1.6-5.1,3-7.1c1.4-2,3-3.8,4.3-5.7
							c2.8-3.7,5.3-7.7,7.5-11.8c1.1-2.1,2.1-4.1,3-6.3c0.9-2.1,1.8-4.3,2.2-6.3c0.1-0.5,0.1-1,0.1-1.5c0-0.1,0-0.2,0-0.4l0-0.1l0,0
							c0,0,0,0.2,0,0.1l0-0.1l0-0.2l-0.1-0.9c0-0.1,0-0.3-0.1-0.4l-0.1-0.3l-0.2-0.6c-0.2-0.4-0.4-0.9-0.6-1.4c-1-1.8-2.4-3.5-4-5.2
							c-1.6-1.7-3.3-3.3-5-5.2c-1.6-1.9-3.1-4.1-4-6.7l3.3,0.6c-0.8,1.1-1.8,2.2-2.8,3.1c-1,0.9-2.2,1.7-3.4,2.4
							c-2.4,1.4-5.1,2.3-7.8,2.6l0.8-0.3c-0.4,0.3-0.8,0.5-1.2,0.9c-0.4,0.3-0.7,0.7-1,1.1c-0.3,0.4-0.6,0.8-0.9,1.2
							c-0.3,0.4-0.5,0.9-0.7,1.3c-0.2,0.5-0.4,0.9-0.5,1.4c-0.1,0.5-0.2,1-0.3,1.5c-0.1,0.5-0.1,1-0.1,1.5c0,0.5,0.1,1,0.2,1.5
							l0.6,3.4l-3.1-1.2L343,271l-2.1-1l-2-1.2c-0.6-0.4-1.2-0.9-1.8-1.3c-0.6-0.5-1.2-1-1.7-1.5c-0.5-0.5-1.1-1-1.6-1.6
							c-0.5-0.6-1-1.1-1.5-1.7c-0.5-0.6-0.9-1.2-1.4-1.8c-0.4-0.6-0.8-1.2-1.2-1.9c-0.4-0.6-0.8-1.3-1.1-1.9c-0.3-0.7-0.7-1.3-1-2
							l-0.9-2l-0.8-2.1l-0.7-2.1l-0.5-2.1l-0.4-2.2l-0.3-2.1l-0.2-2.2c-0.1-1.5-0.2-2.9-0.2-4.4c0-1.5,0-2.9,0.1-4.3
							c0.1-1.4,0.2-2.9,0.3-4.3c0.6-5.7,1.7-11.3,2.8-16.8l2.7,2.5l-1.4,0.4l-1.3,0.5l-1.3,0.6l-1.3,0.6l-1.2,0.7l-1.2,0.8l-1.2,0.9
							l-1.1,0.9l-1.1,1l-1,1l-0.9,1.1l-0.9,1.1l-0.8,1.2l-0.7,1.2l-0.6,1.3l-0.6,1.3l0.1-0.2c-0.2,0.7-0.5,1.2-0.8,1.8
							c-0.4,0.6-0.8,1.2-1.4,1.7c-0.7,0.5-1.6,1-2.7,1c-0.5,0-1-0.1-1.4-0.2c-0.4-0.1-0.7-0.3-1.1-0.5c-0.6-0.4-1.1-0.8-1.5-1.2
							c-0.5-0.4-0.8-0.9-1.1-1.3l-0.3-0.3l0,0l0,0l-0.1-0.1l0-0.1l-0.1-0.2l-0.4-0.6c-0.3-0.5-0.6-1.2-0.8-1.7
							c-0.4-1.1-0.6-2.4-0.6-3.6c0-1.2,0.2-2.4,0.5-3.4c0.6-2.2,1.6-4,2.7-5.8c2.2-3.4,4.9-6.3,7.5-9.1c2.6-2.8,5.4-5.5,7.7-8.2
							l2.3,3.6c-2.6,0.7-5.1,1.7-7.4,3.1c-2.3,1.4-4.4,3.2-6.2,5.2c-0.5,0.5-0.9,1-1.3,1.6c-0.4,0.5-0.8,1.1-1.2,1.7
							c-0.4,0.6-0.7,1.1-1,1.8l-1,1.9c-0.7,1.4-1.5,2.8-2.8,4.1c-0.6,0.7-1.4,1.3-2.5,1.7c-1,0.4-2.3,0.6-3.4,0.3l-2.2-0.5l0.6-2.1
							c2.4-9.1,3.5-18.5,3-27.9l3.8-0.3c0.1,0.9,0,1.6-0.1,2.3c-0.1,0.7-0.3,1.4-0.4,2.1c-0.4,1.4-0.9,2.6-1.6,3.9
							c-0.7,1.2-1.5,2.3-2.3,3.4c-0.9,1-1.9,2-2.8,2.8c-1.9,1.6-3.9,3.3-5.8,4.9c-2,1.6-4.1,3.1-6.2,4.5c-1.1,0.7-2.1,1.4-3.2,2
							c-1.1,0.7-2.2,1.3-3.3,1.9c-1.2,0.6-2.3,1.2-3.5,1.7l-1.8,0.8l-1.8,0.7c-1.2,0.5-2.4,0.8-3.7,1.2c-1.3,0.3-2.5,0.7-3.8,0.9
							l-1.9,0.4l-1.9,0.3c-1.3,0.2-2.6,0.2-3.9,0.3l-6.9,0.6l6.2-3.3c5.5-3,10-7.9,12.6-13.7l2.4,1c-0.8,1.6-1.8,3-3.1,4.2
							c-1.3,1.2-2.8,2.1-4.3,2.8c-1.5,0.7-3.1,1.2-4.8,1.5c-1.6,0.3-3.3,0.5-4.9,0.6c-1.6,0-3.3,0-4.9-0.2c-1.6-0.2-3.2-0.4-4.8-0.7
							c-3.1-0.5-6.2-1.1-9.3-1.3c-3.1-0.2-6.2-0.1-9.1,0.7l-0.5,0.2l-0.1,0c0,0-0.1,0-0.1,0l-0.3,0.1l-1.1,0.4
							c-0.7,0.3-1.3,0.6-1.9,1c-1.3,0.7-2.4,1.8-3.5,2.8c-4.2,4.3-6.4,10.7-5.3,16.6l1.4,7.2l-3.1-6.6l-0.9-2l-0.9-2.1l-0.8-2.1
							l-0.7-2.1l-0.6-2.2l-0.5-2.2l-0.4-2.2l-0.3-2.2l-0.2-2.2l-0.1-2.2l0-2.2l0.1-2.2l0.2-2.2l0.3-2.2l0.4-2.2l0.5-2.2l1.3,0.7
							l-1.6,1.8l-1.5,2l-1.4,2l-1.3,2.1l-1.1,2.2l-1,2.2l-0.9,2.3l-0.8,2.3l-0.6,2.4l-0.5,2.4l-0.4,2.4l-0.2,2.5l-0.1,2.5l0.1,2.5
							l0.2,2.5l0.3,2.4l0.1,0.7l-0.7,0.2c-8.5,2.8-17.2,4.8-26.1,6.1c-2.2,0.3-4.4,0.6-6.7,0.8c-1.1,0.1-2.2,0.2-3.4,0.3
							c-0.5,0-1.2,0-1.8,0c-0.6-0.1-1.2-0.1-1.7-0.2c-1.2-0.2-2.3-0.5-3.4-0.8c-1.1-0.4-2.2-0.9-3.2-1.6c-1-0.7-2-1.6-2.5-2.9
							c-0.6-1.3-0.5-2.8,0-4l0.2-0.6l0.7,0l2.2-0.1l2.1-0.3l2.1-0.5l2.1-0.7l2-0.8l1.9-1l1.8-1.1l1.8-1.3l1.6-1.4l1.5-1.5l1.4-1.6
							l1.3-1.7l1.1-1.8l1-1.9l0.8-2l0.6-2.1l0.9,1.5c-1.9-0.5-4,0.2-6.1,1.2c-1.1,0.5-2.1,1-3.3,1.6c-0.6,0.3-1.2,0.5-1.8,0.7
							l-0.5,0.2l-0.2,0.1l-0.1,0l-0.2,0.1l-0.9,0.2c-1.4,0.2-2.7,0.3-4,0.2c-1.3-0.1-2.6-0.4-3.8-0.8c-1.2-0.4-2.4-0.9-3.5-1.5
							c-1.1-0.6-2.2-1.3-3.2-2c-2-1.4-3.9-3.1-5.7-4.8c-1.7-1.7-3.4-3.4-5.1-5c-3.4-3.2-7.1-6.1-11.4-7l-8.8-2l9.1-1.3l2.3-0.3
							l2.3-0.6l2.2-0.8l2.1-1.1l2-1.3l1.9-1.5l1.8-1.6l1.6-1.8l1.4-1.9l1.2-2l1-2.1l0.8-2.2l0.6-2.3l0.4-2.3l0.1-2.3l-0.1-2.3
							l2.9,1.5c-0.1,0.1-0.3,0.2-0.3,0.2c0,0,0.1-0.1,0.1-0.1c0-0.1,0,0,0.2-0.3c0.1-0.1,0.1-0.3,0.1-0.4l0-0.2c0-0.1,0-0.3,0-0.5
							c-0.1-0.3-0.3-0.7-0.5-0.9c-0.2-0.2-0.2-0.2-0.3-0.3c-0.2-0.1-0.5-0.2-0.6-0.2c0,0-0.1,0-0.1,0c0,0-0.1,0-0.1,0c0,0,0,0,0,0
							c0.2,0,0.7-0.1,1.2-0.2c0.5-0.1,1-0.2,1.5-0.4c-0.1,0,0.5-0.2,0.5-0.2c0,0,0,0,0,0c0,0,0,0,0,0c0,0,0,0,0.1-0.2
							c0-0.2,0-0.5-0.1-0.8c-0.2-0.7-0.6-1.5-1.1-2.3c-1-1.6-2.3-3.1-3.7-4.4c-0.7-0.7-1.5-1.3-2.3-1.8c-0.8-0.5-1.6-1-2.3-1.2
							l-10.9-3.8l11.6-0.3l1.7,0l1.7-0.1l1.7-0.2l1.7-0.3l1.6-0.4l1.6-0.4l1.6-0.5l1.6-0.6l1.5-0.6l1.5-0.7l1.5-0.8l1.4-0.9l1.4-0.9
							l1.4-1l1.3-1l1.2-1.1l0.3,3.5c-0.9-0.6-1.8-1.3-2.6-1.9c-0.8-0.7-1.7-1.4-2.5-2.1c-0.8-0.7-1.6-1.5-2.3-2.3
							c-0.7-0.8-1.4-1.6-2.1-2.5c-0.7-0.8-1.3-1.7-1.9-2.6c-0.6-0.9-1.2-1.8-1.7-2.8c-0.5-0.9-1.1-1.9-1.5-2.9c-0.5-1-0.9-2-1.3-3
							l-3.5-8.7l7.2,6.1c1.5,1.3,3.3,2.3,5.2,2.9c1.9,0.7,4,0.8,6.1,0.8c2.1-0.1,4.3-0.4,6.3-1.1c2.1-0.6,4.1-1.4,6.1-2.5
							c1.9-1,3.8-2.2,5.6-3.6l0.6-0.5l0.7-0.6c0.4-0.4,0.9-0.8,1.3-1.1c0.8-0.7,1.7-1.5,2.5-2.3c3.3-3.2,6.5-6.6,9.9-9.9
							c3.4-3.3,7.1-6.6,11.4-9.1l1.6-0.9l0.1-0.1l0.2-0.1l0.2-0.1l0.4-0.2l0.8-0.4l0.8-0.4l0.9-0.4c0.6-0.2,1.2-0.5,1.8-0.7
							c2.3-0.8,4.7-1.5,7.2-2c2.4-0.4,4.8-0.8,7.3-1c2.4-0.2,4.8-0.3,7.2-0.3c4.8,0,9.5,0.3,14.2,0.7l-2.5,3.9l-0.9-1.8l-0.8-1.8
							l-0.7-1.8l-0.6-1.9l-0.5-1.9l-0.4-1.9l-0.3-1.9l-0.2-2l-0.2-2l-0.1-2l0-2l0.1-2l0.2-2l0.3-2l0.4-1.9l0.5-1.9l5.2,1.3
							c-0.4,2.2,0.1,4.6,1.5,6.8c1.4,2.1,3.4,3.9,5.7,5.1c0.6,0.3,1.2,0.6,1.8,0.8l0.9,0.3c0,0,0.2,0.1,0.2,0.1l0.3,0.1l0.6,0.1
							c0.8,0.2,1.3,0.3,2,0.4c0.7,0.1,1.4,0.2,2.1,0.2c2.8,0.2,5.7,0,8.6-0.4c2.9-0.4,5.9-1,9-1.4c3-0.5,6.2-0.9,9.3-1.2
							c6.2-0.6,12.6-0.7,18.9,0.1c3.2,0.4,6.3,1,9.4,2c1.5,0.5,3.1,1,4.6,1.6l1.1,0.5l1.1,0.5l2.1,1c1.4,0.8,2.9,1.6,4.2,2.5
							c1.3,0.9,2.7,1.7,3.9,2.7c2.6,1.8,5,3.9,7.3,5.9c4.7,4,9.2,8.2,13.9,11.8c2.4,1.8,4.8,3.6,7.3,5c2.5,1.5,5.1,2.7,7.8,3.8
							l-3.3,2.9l-3.6-17.5l-1.1-5.4l4.6,2.8c1.2,0.7,2.5,1.4,3.6,2.2c1.1,0.8,2.3,1.6,3.4,2.6c0.5,0.5,1.1,0.9,1.6,1.4l1.5,1.5
							c1,1,1.8,2.1,2.7,3.2c0.8,1.1,1.6,2.3,2.4,3.4c0.7,1.2,1.5,2.4,2,3.6l0.9,1.9l0.8,1.9c0.6,1.3,1,2.6,1.4,3.9
							c0.5,1.3,0.8,2.6,1.2,4c0.3,1.3,0.6,2.7,0.9,4c0.2,1.4,0.5,2.7,0.6,4.1c0.2,1.4,0.3,2.7,0.4,4.1c0.1,1.4,0.1,2.7,0.1,4.1l0,2
							c0,0.7,0,1.3,0.1,1.9c0,1.2,0.2,2.5,0.5,3.3l0,0.2l0,0.1c0,0,0.1,0.2,0,0.1c0,0,0,0-0.1-0.1c0,0,0,0-0.1-0.1
							c-0.1-0.1-0.3-0.1-0.5-0.2c-0.1,0-0.2,0-0.3,0c-0.1,0-0.1,0-0.2,0.1c0,0-0.1,0,0,0c0,0,0.2-0.2,0.2-0.2l0.5-0.7l0.8-0.1
							l1.6-0.2l1.6-0.1l1.6,0.1l1.6,0.2l1.6,0.4l1.5,0.5l1.5,0.7l1.4,0.8l1.3,0.9l1.2,1l1.2,1.1l1.1,1.2l0.9,1.3l0.8,1.4l0.7,1.5
							l0.5,1.6l0.4,1.4l-1.3,0.8c-3.4,2.2-7.4,3.3-11.5,3l1.5-3.3c1.7,1.9,3.1,4,4.2,6.2c1.1,2.2,1.8,4.6,2.4,6.9
							c1.1,4.7,1.6,9.4,2,14c0.9,9.2,1.7,18.7,0,28.1c-0.4,2.3-1,4.7-1.7,6.9l-0.6,1.7l-0.7,1.7l-0.4,0.8l-0.4,0.8l-0.8,1.6
							c-1.1,2.1-2.2,4.1-3.1,6.1c-0.9,2-1.7,4.1-1.9,6.2c-0.1,0.5-0.1,1.1-0.1,1.6c0,0.1,0,0.3,0,0.3l0,0.4l0.1,0.9
							c0.1,0.5,0.2,1,0.3,1.5c0.2,0.5,0.3,1,0.5,1.5c0.8,2,2,3.8,3.5,5.4c3,3.3,6.8,5.8,10.7,8.1l1.9,1.1l-2,0.7
							c-3.9,1.5-7.9,2.3-12,2.4l0.8-1.1l0.5,3.3l0.2,3.3l0,3.3c-0.1,1.1-0.1,2.2-0.2,3.3c-0.1,1.1-0.3,2.2-0.4,3.2
							c-0.2,1.1-0.4,2.1-0.6,3.2c-0.3,1.1-0.5,2.1-0.8,3.2c-0.3,1-0.6,2.1-0.9,3.1c-0.6,2.1-1.4,4.1-2.1,6.1c-0.8,2-1.6,4-2.5,6
							c-1.7,3.9-3.6,7.8-5.5,11.7l-0.5-0.2c1.8-3.9,3.6-7.8,5.2-11.8c0.8-2,1.6-4,2.3-6c0.7-2,1.4-4.1,2-6.1c0.3-1,0.5-2.1,0.8-3.1
							c0.2-1,0.4-2.1,0.7-3.1c0.2-1,0.3-2.1,0.5-3.1c0.1-1.1,0.2-2.1,0.3-3.2c0.1-1.1,0.1-2.1,0.1-3.2l-0.1-3.2l-0.3-3.2l-0.5-3.1
							l-0.2-1l1-0.1c3.9-0.2,7.8-1.1,11.4-2.6l-0.1,1.8c-4.1-2.3-8.1-4.8-11.4-8.3c-1.6-1.8-3.1-3.8-4.1-6.1
							c-0.2-0.6-0.4-1.2-0.6-1.8c-0.1-0.6-0.3-1.3-0.4-1.9l-0.1-0.9l0-0.4c0-0.3,0-0.3,0-0.5c0-0.6,0-1.3,0.1-1.9
							c0.3-2.5,1.1-4.8,2-7c1-2.2,2.1-4.2,3.1-6.3l0.7-1.5l0.4-0.8l0.3-0.8l0.6-1.6l0.5-1.6c0.7-2.1,1.2-4.3,1.5-6.5
							c1.4-8.9,0.5-18.1-0.5-27.2c-0.5-4.6-1-9.1-2.2-13.4c-1.1-4.3-2.9-8.3-5.8-11.4l-3.4-3.6l4.9,0.3c3.2,0.2,6.4-0.7,9-2.5
							l-0.8,2.2l-0.4-1.1l-0.5-1.1l-0.6-1.1l-0.7-1l-0.8-0.9l-0.9-0.9l-1-0.8l-1-0.7l-1.1-0.6l-1.1-0.5l-1.2-0.4l-1.2-0.3l-1.2-0.2
							l-1.2-0.1l-1.2,0.1l-1.2,0.2l1.3-0.8c-0.4,0.5-0.7,0.8-1.2,1.2c-0.2,0.2-0.6,0.4-0.9,0.5c-0.2,0.1-0.4,0.1-0.6,0.2
							c-0.2,0.1-0.5,0.1-0.7,0c-0.6,0-1-0.2-1.5-0.5c-0.2-0.1-0.4-0.3-0.5-0.4c-0.1-0.1-0.3-0.3-0.4-0.4c-0.3-0.3-0.3-0.5-0.5-0.8
							l-0.2-0.4l-0.1-0.3c-0.6-1.7-0.7-3.1-0.8-4.5c-0.1-0.7-0.1-1.4-0.1-2.1l0-2c0-1.3,0-2.6-0.2-3.8c-0.1-1.3-0.2-2.5-0.4-3.8
							c-0.1-1.3-0.4-2.5-0.6-3.8c-0.2-1.3-0.6-2.5-0.8-3.7c-0.4-1.2-0.7-2.5-1.1-3.6c-0.4-1.2-0.8-2.4-1.4-3.5l-0.8-1.7l-0.9-1.7
							c-0.5-1.1-1.2-2.2-1.9-3.3c-0.7-1-1.4-2.1-2.2-3.1c-0.8-0.9-1.5-2-2.5-2.8l-1.3-1.3c-0.5-0.4-0.9-0.8-1.4-1.2
							c-0.9-0.8-2-1.5-3-2.2c-1-0.7-2.1-1.2-3.2-1.9l3.5-2.7l3.8,17.5l1,4.5l-4.3-1.6c-3-1.1-6-2.4-8.7-4.1
							c-2.8-1.6-5.3-3.5-7.8-5.3c-4.9-3.8-9.5-8-14.1-11.9c-2.3-1.9-4.6-3.9-7-5.6c-1.2-0.9-2.4-1.7-3.7-2.5
							c-1.2-0.8-2.4-1.4-3.7-2.2l-2.1-1l-0.9-0.5l-1-0.4c-1.3-0.6-2.7-1-4.1-1.4c-2.8-0.8-5.6-1.4-8.5-1.8
							c-5.8-0.7-11.8-0.6-17.7-0.1c-3,0.3-5.9,0.7-8.9,1.1c-3,0.5-6,1-9.1,1.4c-3.1,0.4-6.4,0.7-9.7,0.5c-3.3-0.3-6.8-0.9-9.9-2.6
							c-3.1-1.6-5.8-4-7.8-7c-2-3-3-6.9-2.3-10.7l5.2,1.3l-0.5,1.6l-0.4,1.7l-0.3,1.7l-0.2,1.7l-0.1,1.7l0,1.7l0,1.7l0.1,1.7
							l0.2,1.7l0.3,1.7l0.4,1.7l0.5,1.7l0.5,1.6l0.6,1.6l0.7,1.6l0.8,1.5l2.2,4.2l-4.7-0.4c-9.3-0.7-18.6-1.3-27.4,0.3
							c-2.2,0.4-4.3,1-6.4,1.7c-1.9,0.7-4.1,1.7-5.9,2.8c-3.8,2.2-7.2,5.2-10.6,8.3c-3.3,3.2-6.5,6.6-10,9.9
							c-0.9,0.8-1.8,1.6-2.7,2.5c-0.5,0.4-0.9,0.8-1.4,1.1l-0.7,0.6L183,127c-2,1.5-4.1,2.8-6.3,4c-2.2,1.2-4.5,2.1-6.9,2.8
							c-2.4,0.7-4.9,1.2-7.5,1.2c-2.6,0.1-5.2-0.2-7.7-1c-2.5-0.8-4.9-2.2-6.9-3.9l3.7-2.6c0.4,0.9,0.7,1.8,1.2,2.7
							c0.4,0.9,0.9,1.7,1.4,2.6c0.5,0.8,1,1.7,1.5,2.5c0.6,0.8,1.1,1.6,1.7,2.4c0.6,0.8,1.2,1.5,1.9,2.2c0.7,0.7,1.3,1.4,2,2.1
							c0.7,0.7,1.4,1.3,2.2,1.9c0.8,0.6,1.5,1.2,2.3,1.7l2.4,1.6l-2.1,1.8l-1.4,1.2l-1.5,1.2l-1.5,1.1l-1.6,1l-1.6,0.9l-1.7,0.9
							l-1.7,0.8l-1.7,0.7l-1.8,0.6l-1.8,0.5l-1.8,0.5l-1.8,0.4l-1.9,0.3l-1.9,0.2l-1.9,0.1l-1.9,0l0.7-4c1.3,0.5,2.3,1.1,3.3,1.7
							c1,0.7,1.9,1.4,2.7,2.2c1.7,1.6,3.2,3.3,4.4,5.3c0.6,1,1.2,2.1,1.5,3.4c0.2,0.7,0.3,1.4,0.2,2.3c-0.1,0.9-0.5,1.9-1.3,2.6
							c-0.2,0.2-0.4,0.3-0.6,0.5c-0.2,0.1-0.5,0.3-0.7,0.4c-0.5,0.2-0.4,0.2-1,0.3c-0.5,0.1-1.1,0.3-1.6,0.4
							c-0.6,0.1-1.1,0.3-1.9,0.3l-0.2,0l-0.3,0l-0.3,0c-0.1,0-0.5-0.2-0.8-0.3c-0.2-0.1-0.2-0.1-0.4-0.3c-0.2-0.2-0.4-0.6-0.5-1
							c0-0.2-0.1-0.4-0.1-0.5c0-0.2,0-0.2,0-0.3c0-0.2,0.1-0.3,0.2-0.5c0.2-0.4,0.2-0.4,0.3-0.5c0.1-0.1,0.2-0.2,0.2-0.3
							c0.5-0.4,0.7-0.5,1-0.8l2.8-1.7l0.2,3.2l0.1,2.8l-0.2,2.8l-0.5,2.7l-0.7,2.7l-1,2.6l-1.2,2.4l-1.5,2.3l-1.7,2.2l-1.8,2l-2,1.8
							l-2.2,1.6l-2.3,1.4l-2.5,1.2l-2.6,0.9l-2.7,0.7l-2.7,0.4l0.2-3.3c1.3,0.3,2.5,0.7,3.7,1.3c1.2,0.5,2.3,1.2,3.4,1.9
							c2.1,1.4,4,3.1,5.7,4.8c1.8,1.7,3.4,3.5,5.1,5.2c1.6,1.7,3.4,3.2,5.2,4.6c0.9,0.7,1.9,1.3,2.9,1.8c1,0.5,2,1,3.1,1.4
							c1,0.4,2.1,0.6,3.2,0.7c1.1,0.2,2.1,0.1,3.1-0.1l0.9-0.2l0.2,0l0.1,0l0,0c-0.1,0,0,0,0,0l0,0l0.4-0.1c0.5-0.2,1-0.4,1.6-0.6
							c1.1-0.4,2.1-1,3.2-1.5c1.1-0.5,2.3-1,3.6-1.3c1.3-0.3,2.8-0.3,4.2,0.1l1.3,0.4l-0.4,1.2l-0.7,2.3L170,223l-1.1,2.1l-1.3,2
							l-1.4,1.9l-1.6,1.8l-1.7,1.6l-1.8,1.5l-1.9,1.4l-2,1.2l-2.1,1l-2.2,0.9l-2.2,0.7l-2.3,0.5l-2.3,0.3l-2.3,0.1l1-0.7
							c-0.3,0.9-0.4,1.7,0,2.5c0.3,0.8,1,1.5,1.8,2.1c0.8,0.6,1.8,1,2.7,1.4c1,0.3,2,0.6,3.1,0.8c0.5,0.1,1.1,0.1,1.6,0.2
							c0.5,0,1,0.1,1.6,0c1,0,2.2-0.2,3.3-0.3c2.2-0.2,4.4-0.5,6.6-0.8c8.8-1.2,17.4-3.2,25.8-5.9l-0.6,1l-0.3-2.5l-0.2-2.6l0-2.6
							l0.1-2.6l0.3-2.5l0.4-2.5l0.5-2.5l0.7-2.5l0.8-2.4l0.9-2.4l1.1-2.3l1.2-2.3l1.3-2.2l1.4-2.1l1.6-2l1.7-1.9l1.9-2.2l-0.6,2.9
							l-0.4,2.1l-0.3,2.1l-0.2,2.2l-0.2,2.2l-0.1,2.2l0,2.2l0.1,2.2l0.2,2.2l0.3,2.1l0.4,2.1l0.5,2.1l0.6,2.1l0.7,2.1l0.8,2l0.8,2
							l0.9,2l-1.6,0.6c-0.3-1.6-0.5-3.3-0.3-5c0.1-1.7,0.4-3.3,0.9-4.9c0.5-1.6,1.2-3.1,2-4.5c0.8-1.4,1.9-2.7,3-3.9
							c1.2-1.2,2.4-2.3,3.9-3.1c0.7-0.5,1.5-0.8,2.2-1.2l1.1-0.4l0.3-0.1l0.2-0.1l0.1,0l0.6-0.2c3.2-1,6.5-1.1,9.8-0.8
							c3.2,0.2,6.4,0.7,9.5,1.2c1.6,0.2,3.1,0.4,4.7,0.6c1.5,0.2,3.1,0.2,4.6,0.1c1.5-0.1,3-0.3,4.5-0.6c1.5-0.3,2.9-0.8,4.2-1.4
							c1.3-0.6,2.6-1.4,3.6-2.4c1-1,1.9-2.1,2.5-3.4l2.4,1c-2.6,6.4-7.5,11.8-13.5,15.2l-0.8-2.7c1.2-0.1,2.4-0.2,3.6-0.4l1.8-0.3
							l1.8-0.4c1.2-0.2,2.3-0.6,3.5-0.9c1.1-0.4,2.3-0.7,3.4-1.2l1.7-0.7l1.7-0.8c1.1-0.5,2.2-1.1,3.3-1.6c1.1-0.6,2.1-1.2,3.2-1.8
							c1-0.6,2.1-1.3,3.1-2c2-1.4,4-2.9,5.9-4.4c1.9-1.6,3.8-3.1,5.6-4.8c0.9-0.8,1.7-1.6,2.4-2.5c0.7-0.9,1.4-1.8,1.9-2.8
							c0.5-1,0.9-2,1.2-3.1c0.1-0.5,0.3-1.1,0.3-1.6c0.1-0.5,0.1-1.1,0.1-1.4l3.8-0.3c0.6,9.8-0.3,19.7-2.7,29.2l-1.6-2.6
							c0.3,0.1,0.6,0,0.9-0.1c0.3-0.1,0.7-0.4,1.1-0.8c0.8-0.8,1.5-1.9,2.1-3.2l1-2c0.4-0.7,0.8-1.4,1.2-2.1
							c0.4-0.7,0.9-1.3,1.3-1.9c0.5-0.6,1-1.2,1.5-1.8c2.1-2.4,4.5-4.4,7.2-6.1c1.3-0.9,2.7-1.6,4.2-2.2c0.7-0.3,1.5-0.6,2.2-0.8
							c0.7-0.3,1.5-0.5,2.3-0.7l7.1-2.1l-4.9,5.7c-2.6,3-5.3,5.7-7.9,8.5c-2.6,2.7-5.1,5.5-7,8.5c-0.9,1.5-1.7,3-2.1,4.5
							c-0.4,1.5-0.4,2.9,0,4.2c0.1,0.4,0.2,0.5,0.4,0.9l0.4,0.6l0.1,0.2l0,0.1c0,0,0.1,0.1-0.1-0.1l0,0l0,0l0,0l0.2,0.2
							c0.5,0.7,1,1.2,1.4,1.4c0.1,0,0.1,0.1,0.2,0.1c0,0,0,0,0,0c-0.1,0-0.2,0-0.1,0c0.1-0.1,0.2-0.2,0.4-0.5
							c0.1-0.2,0.3-0.6,0.4-0.8l0.1-0.2l0,0l0.7-1.6l0.8-1.5l0.9-1.5l1-1.4l1-1.3l1.1-1.3l1.2-1.2l1.2-1.1l1.3-1.1l1.4-1l1.4-0.9
							l1.5-0.8l1.5-0.8l1.6-0.7l1.6-0.6l1.6-0.5l3.4-1l-0.7,3.5c-1.1,5.5-2.2,11-2.8,16.4c-0.1,1.4-0.3,2.7-0.4,4.1
							c-0.1,1.4-0.1,2.7-0.1,4.1c0,1.4,0.1,2.7,0.2,4.1l0.2,2l0.3,2.1l0.4,1.9l0.5,1.9l0.6,1.9l0.7,1.9l0.8,1.8l0.9,1.8
							c0.3,0.6,0.7,1.1,1,1.7c0.3,0.6,0.7,1.1,1.1,1.7c0.4,0.5,0.8,1,1.2,1.6c0.4,0.5,0.9,1,1.3,1.5c0.4,0.5,0.9,0.9,1.4,1.4
							c0.5,0.4,1,0.8,1.5,1.3l1.6,1.1l1.7,1l1.7,0.8l1.8,0.7l-2.6,2.2c-0.1-0.7-0.2-1.4-0.2-2.1c0-0.7,0-1.4,0.1-2.1
							c0.1-0.7,0.2-1.4,0.4-2c0.2-0.7,0.4-1.3,0.7-1.9c0.3-0.6,0.6-1.2,1-1.8c0.4-0.6,0.8-1.1,1.2-1.7c0.5-0.5,0.9-1,1.5-1.5
							c0.5-0.4,1.1-0.9,1.7-1.2l0.4-0.2l0.4,0c2.2-0.2,4.4-0.9,6.3-2c1-0.6,1.9-1.2,2.7-1.9c0.8-0.7,1.6-1.6,2.3-2.4l2.2-3l1.1,3.5
							c0.6,1.9,1.8,3.7,3.2,5.4c1.4,1.7,3.1,3.4,4.7,5.1c1.6,1.8,3.3,3.7,4.5,6.1c0.3,0.6,0.5,1.2,0.8,1.9l0.3,1.1l0.1,0.5
							c0,0.2,0,0.3,0.1,0.4l0.1,0.9l0,0.2l0,0.1l0,0.2l0,0.1c0,0.2,0,0.3,0,0.5c0,0.7-0.1,1.4-0.2,2c-0.5,2.6-1.6,4.9-2.5,7
							c-1,2.2-2.1,4.3-3.2,6.4c-2.3,4.2-5,8.2-7.9,12c-1.5,1.9-3.1,3.7-4.4,5.5c-1.3,1.8-2.4,3.8-2.6,5.7c0,0.2,0,0.5,0,0.7l0,0.3
							l0.1,0.4c0.1,0.5,0.2,0.9,0.4,1.4c0.4,0.9,1,1.8,1.7,2.7c1.4,1.7,3.1,3.5,4.7,5.2c3.2,3.4,6.7,6.5,10.6,8.9
							c2,1.2,4.1,2.1,6.2,2.6c2.2,0.6,4.4,0.7,6.7,0.4l-0.5,1.5c-3.6-4-5.8-9.2-6.1-14.6l-0.1-1.3l1.2,0.6l1.4,0.7l1.4,0.6l1.5,0.4
							l1.5,0.3l1.5,0.2l1.6,0.1l1.6-0.1l1.5-0.2l1.5-0.3l1.5-0.4l1.5-0.6l1.4-0.7l1.3-0.8l1.3-0.9l1.2-1l1.1-1.1l0,0.5
							c-0.5-0.7-1-1.2-1.7-1.7c-0.7-0.5-1.4-0.8-2.2-1.1c-0.8-0.3-1.6-0.4-2.4-0.4c-0.4,0-0.8,0-1.2,0.1c-0.4,0.1-0.8,0.2-1.2,0.3
							L397.4,313.5z"/>
					</g>
				</g>
				<path id="XMLID_19_" class="st3" d="M228.1,272.4c-0.5,0-0.9,0-1.4,0.1c-0.5,0.1-0.9,0.2-1.3,0.4c-0.8,0.4-1.6,0.9-2.2,1.6
					l0.2-0.4c0.2,5,0.5,10,0.9,15c0.4,5,0.7,10,1.1,14.9c0.4,5,0.8,9.9,1.4,14.9c0.3,2.5,0.6,5,0.9,7.4c0.3,2.5,0.7,4.9,1,7.4
					l-1.6-2.5l1.7,0.8c0.6,0.2,1.1,0.5,1.7,0.7c0.6,0.2,1.2,0.4,1.8,0.6l1.8,0.5c0.6,0.1,1.2,0.2,1.9,0.4l1.9,0.2l1.9,0.1l1.9,0
					l2-0.2c0.6-0.1,1.3-0.2,2-0.3l1.9-0.4c0.6-0.2,1.3-0.4,1.9-0.5l1.9-0.7l1.9-0.8c0.6-0.3,1.2-0.6,1.9-1c0.6-0.4,1.2-0.7,1.8-1.1
					l0.5,0.4c-0.4,0.6-0.8,1.2-1.3,1.8c-0.5,0.6-1,1.1-1.5,1.7l-1.7,1.5l-1.9,1.3c-0.7,0.4-1.3,0.8-2,1.2l-2.1,1
					c-0.7,0.3-1.5,0.5-2.2,0.8l-2.3,0.6l-2.3,0.4l-2.4,0.2l-2.4,0c-0.8-0.1-1.6-0.1-2.4-0.2l-2.4-0.5c-0.8-0.2-1.6-0.5-2.3-0.7
					c-0.8-0.3-1.5-0.6-2.3-0.9l-2.1-1.2l-1.5-0.8l-0.1-1.7c-0.2-2.5-0.2-5-0.3-7.5l-0.2-7.5c-0.1-5-0.3-10-0.3-15.1
					c0-5,0-10,0.2-15.1c0.1-5,0.3-10,0.6-15l0-0.3l0.2-0.2c0.8-0.8,1.8-1.3,2.8-1.6c0.5-0.2,1-0.2,1.6-0.3c0.5,0,1.1,0,1.6,0.1
					L228.1,272.4z"/>
			</g>
			<path id="XMLID_17_" class="st3" d="M365.3,261.1c-0.6,1.3-1.2,2.6-1.8,3.8c-0.5,1.3-1,2.5-1.4,3.8c-0.2,0.6-0.5,1.3-0.5,1.7
				c0,0.1,0,0.3-0.1,0.3l0.1,0.4c0,0.2,0.1,0.4,0.3,0.7c0.4,0.5,1,0.9,1.6,1.2c0.6,0.4,1.3,0.7,1.9,1.1l0.1,0.1l0,0.2
				c0,0.5,0.2,1,0.2,1.5c0.1,0.5,0.1,1,0.1,1.6c0,0.5,0,1.1-0.1,1.6c0,0.5-0.2,1.1-0.3,1.6c-0.3,1-0.7,2-1.2,2.9
				c-0.5,0.9-1.1,1.8-1.8,2.6c-0.7,0.8-1.5,1.5-2.4,2.1c-0.4,0.3-0.9,0.6-1.3,0.9c-0.5,0.2-0.9,0.5-1.4,0.7c-1.9,0.8-4,1.3-6.1,1.2
				l0-0.2c1.8-0.9,3.5-1.8,5.1-2.8c0.4-0.3,0.8-0.5,1.1-0.8c0.4-0.3,0.7-0.6,1.1-0.9c0.7-0.6,1.3-1.2,2-1.9c1.3-1.3,2.3-2.8,3.1-4.5
				c0.2-0.4,0.4-0.8,0.6-1.3c0.2-0.4,0.3-0.9,0.5-1.3c0.1-0.5,0.2-0.9,0.3-1.4c0.1-0.5,0-1,0-1.4l0.1,0.3c-0.5-0.4-1.1-0.7-1.8-1
				c-0.7-0.3-1.4-0.5-2.1-1c-0.4-0.2-0.7-0.5-1-1c-0.2-0.3-0.2-0.4-0.3-0.6c-0.1-0.4-0.1-0.5-0.2-0.8c0-0.5,0-0.9,0.1-1.3
				c0.1-0.4,0.2-0.7,0.3-1.1c0.2-0.7,0.5-1.4,0.8-2.1c0.3-0.7,0.7-1.3,1.2-1.9c0.9-1.2,1.9-2.3,3.2-3.1L365.3,261.1z"/>
			<path id="XMLID_16_" class="st3" d="M249.7,268.3c0,0,0.3,0.3,0.9,0.7c0.5,0.4,1.3,1,2.3,1.6c0.5,0.3,1,0.6,1.6,0.9
				c0.6,0.3,1.2,0.6,1.9,0.8c0.7,0.3,1.4,0.5,2.1,0.7c0.7,0.2,1.5,0.4,2.2,0.5c0.8,0.2,1.5,0.2,2.3,0.3c0.7,0.1,1.5,0.1,2.2,0.1
				c1.4,0,2.8,0,4-0.1c1.2-0.1,2.2-0.2,2.9-0.2c0.7-0.1,1.1-0.1,1.1-0.1s-0.3,0.2-1,0.6c-0.6,0.3-1.6,0.8-2.8,1.2
				c-1.2,0.4-2.6,0.7-4.2,0.9c-0.8,0.1-1.6,0.1-2.4,0.1c-0.8,0-1.7-0.1-2.5-0.3c-0.9-0.2-1.7-0.4-2.5-0.7c-0.8-0.3-1.5-0.6-2.3-1
				c-1.4-0.8-2.6-1.7-3.5-2.6c-0.4-0.5-0.8-0.9-1.1-1.3c-0.3-0.4-0.5-0.8-0.7-1.1c-0.2-0.3-0.3-0.6-0.4-0.8
				C249.8,268.4,249.7,268.3,249.7,268.3z"/>
			<path id="XMLID_15_" class="st3" d="M221,272.6c0,0-0.3,1-1.2,2.3c-0.8,1.3-2.1,2.8-3.7,4.1c-1.6,1.2-3.4,2.2-4.8,2.7
				c-1.4,0.5-2.5,0.6-2.5,0.6s0.2-0.2,0.5-0.5c0.3-0.3,0.7-0.8,1.3-1.3c1.1-1,2.5-2.3,4-3.4c1.5-1.2,3-2.3,4.3-3.1
				c0.6-0.4,1.2-0.7,1.5-0.9C220.8,272.7,221,272.6,221,272.6z"/>
			<g id="XMLID_13_">
				<ellipse id="XMLID_14_" class="st9" cx="215.6" cy="263.8" rx="3.9" ry="8.3"/>
			</g>
			<ellipse id="XMLID_12_" class="st9" cx="285.2" cy="257.5" rx="4.8" ry="9.3"/>
			<g id="XMLID_10_">
				<path id="XMLID_11_" class="st8" d="M187.3,248.4c0,0,0-0.2,0.1-0.4c0.1-0.3,0.2-0.7,0.4-1.2c0.3-0.5,0.6-1.2,1-1.8
					c0.4-0.7,1-1.4,1.7-2.1c0.4-0.3,0.8-0.7,1.2-1.1c0.4-0.3,0.9-0.6,1.4-1c0.5-0.3,1-0.6,1.6-0.9c0.5-0.3,1.1-0.5,1.7-0.8
					c0.6-0.2,1.2-0.4,1.9-0.6c0.6-0.2,1.3-0.3,2-0.4c1.4-0.2,2.8-0.2,4.2-0.1c1.4,0.2,2.8,0.4,4.1,0.9c1.4,0.4,2.5,1.1,3.5,1.7
					c1,0.6,1.8,1.2,2.6,1.6c0.8,0.5,1.8,1,2.6,1.7c0.9,0.6,1.6,1.4,2.1,2.3c0.5,0.8,0.7,1.6,0.7,2.3c0.1,0.7-0.1,1.2-0.2,1.5
					c-0.1,0.3-0.2,0.5-0.2,0.5l-0.4-0.1c0,0,0-0.1,0-0.4c0-0.3,0-0.6-0.2-1.1c-0.2-0.5-0.5-1-1-1.5c-0.5-0.5-1.1-0.9-1.9-1.3
					c-0.8-0.4-1.7-0.7-2.6-1.1c-1-0.4-1.9-0.8-2.9-1.3c-1-0.5-2-0.9-3.1-1.2c-1.1-0.3-2.2-0.5-3.4-0.7c-1.2-0.1-2.3-0.1-3.5,0
					c-1.1,0.1-2.3,0.3-3.3,0.6c-1.1,0.3-2,0.7-3,1.1c-0.4,0.2-0.9,0.4-1.3,0.7c-0.4,0.2-0.8,0.5-1.2,0.7c-0.7,0.5-1.4,1-1.9,1.4
					c-0.6,0.4-1,0.9-1.3,1.2c-0.7,0.8-1.1,1.2-1.1,1.2L187.3,248.4z"/>
			</g>
			<path id="XMLID_9_" class="st8" d="M243.3,246.4c0,0,0-0.2-0.1-0.6c0-0.4,0-1.1,0.2-2c0.2-0.8,0.5-1.8,1.2-2.9
				c0.6-1,1.5-2.1,2.8-3c0.4-0.3,0.5-0.4,0.9-0.7c0.4-0.2,0.7-0.4,1-0.6c0.7-0.4,1.4-0.7,2.2-1.1c1.5-0.6,3.1-1.2,4.7-1.6
				c1.6-0.4,3.2-0.9,4.8-1.3c1.7-0.4,3.3-0.8,5-1.2c1.7-0.3,3.4-0.6,5.1-0.9c1.7-0.3,3.5-0.4,5.2-0.6c1.7-0.1,3.4-0.1,5,0
				c0.8,0,1.6,0.2,2.3,0.3c0.8,0.2,1.5,0.3,2.2,0.5c1.4,0.3,2.6,0.8,3.6,1.4c1,0.5,1.9,1.1,2.5,1.6c0.7,0.5,1.1,1,1.4,1.3
				c0.3,0.3,0.4,0.5,0.4,0.5l-0.2,0.3c0,0-0.2-0.1-0.5-0.3c-0.3-0.2-0.8-0.5-1.5-0.8c-0.7-0.3-1.5-0.6-2.5-0.9
				c-1-0.3-2.2-0.5-3.4-0.7c-2.5-0.3-5.6-0.2-8.8,0.2c-3.2,0.4-6.6,1.2-9.9,1.9c-3.4,0.7-6.8,1.4-10,2c-3.2,0.6-6.1,1.4-8.3,2.7
				c-2.2,1.3-3.6,3-4.2,4.3c-0.3,0.7-0.5,1.2-0.6,1.6c-0.1,0.4-0.1,0.6-0.1,0.6L243.3,246.4z"/>
			<g id="XMLID_6_">
				<path id="XMLID_8_" class="st3" d="M253.9,351c0.9-0.5,1.9-0.9,2.9-1.3c1-0.4,1.9-0.7,2.9-1c1.9-0.7,3.9-1.2,5.8-1.8
					c1.9-0.5,3.9-0.8,6-1.1c1-0.2,2-0.4,3-0.6c1-0.3,1.9-0.7,2.8-1.1c0.5-0.2,0.9-0.4,1.4-0.7c0.4-0.2,0.9-0.5,1.3-0.8
					c0.9-0.5,1.7-1.2,2.5-1.7c0.8-0.6,1.6-1.3,2.4-1.9l2.3-1.9l2.2-2c0.7-0.7,1.3-1.4,2-2.1c0.6-0.7,1.3-1.4,2-2.1
					c0.6-0.7,1.2-1.5,1.9-2.2l1.5,2.8c-1.7-0.1-3.4-0.3-5-0.6c-1.7-0.3-3.4-0.6-5-1l0-0.4c1.7-0.4,3.3-0.7,5-1
					c1.7-0.2,3.3-0.4,5-0.6l3.4-0.3l-1.9,3c-0.6,0.9-1.1,1.8-1.8,2.7c-0.7,0.8-1.4,1.7-2.1,2.5c-0.8,0.7-1.6,1.5-2.4,2.1
					c-0.9,0.6-1.7,1.3-2.6,1.9c-0.9,0.6-1.8,1.1-2.7,1.6c-1,0.5-1.9,0.9-2.9,1.3l-2.9,1.1c-1,0.3-1.9,0.7-2.9,1.1
					c-1,0.3-1.9,0.8-2.8,1.2c-0.9,0.4-1.9,0.9-2.8,1.4c-0.9,0.5-1.9,1-2.8,1.4c-1,0.4-1.9,0.7-2.9,1c-2,0.5-4,0.9-6.1,1.1
					c-1,0.1-2.1,0.2-3.1,0.2c-1,0-2.1,0-3.1-0.1L253.9,351z"/>
				<path id="XMLID_7_" class="st3" d="M267.9,356.8c0,0,3.9-0.9,7.5-2.3c0.9-0.3,1.7-0.8,2.5-1.2c0.4-0.1,0.8-0.3,1.2-0.4
					c0.4-0.1,0.7-0.3,1.1-0.3c0.3-0.1,0.6-0.2,0.9-0.3c0.3-0.1,0.5-0.2,0.7-0.3c0.4-0.2,0.7-0.2,0.7-0.2l0.2,0.2
					c0,0-0.1,0.3-0.3,0.7c-0.1,0.2-0.2,0.5-0.4,0.8c-0.2,0.3-0.4,0.6-0.7,0.9c-0.3,0.3-0.6,0.6-1,0.8c-0.4,0.2-0.8,0.5-1.3,0.7
					c-0.9,0.4-2,0.5-3,0.7c-2,0.4-4,0.6-5.5,0.6c-1.5,0-2.5,0-2.5,0L267.9,356.8z"/>
			</g>
		</g>
	</g>
</g>
</svg>
