<?xml version="1.0" encoding="utf-8"?>
<!-- Generator: Adobe Illustrator 19.0.0, SVG Export Plug-In . SVG Version: 6.00 Build 0)  -->
<svg version="1.1" id="Capa_1" xmlns="http://www.w3.org/2000/svg" xmlns:xlink="http://www.w3.org/1999/xlink" x="0px" y="0px"
	 viewBox="0 0 220 220" style="enable-background:new 0 0 220 220;" xml:space="preserve">
<style type="text/css">
	.st0{fill:#FFFFFF;}
</style>
<path id="XMLID_33_" class="st0" d="M110,10C54.7,10,10,54.7,10,110c0,55.2,44.7,100,100,100c55.2,0,100-44.8,100-100
	C210,54.7,165.2,10,110,10z M176.3,72c-3.1,4.2-6.7,8-10.9,11.1c-0.8,0.7-1,1.1-1,2.1c0.3,19.2-5.8,36.4-18.1,51.3
	c-11.6,13.6-26.3,21.8-43.9,24.7c-18.6,2.9-36.2-0.3-52.3-10.2c-0.2-0.1-0.4-0.3-0.6-0.3c9.5,0.6,18.7-0.8,27.4-4.8
	c3.9-1.7,7.5-3.8,11-6.6c-4.1-0.1-7.9-1.1-11.4-2.8c-5.9-2.9-10-7.7-12.5-14c-0.6-1.4-0.6-1.4,1-1.3c4.2,0.4,7.3,0.3,9.6-0.6
	c-2.3-0.8-4.4-1.2-6.2-2.4c-8.8-4.8-13.4-12.3-14.2-22.4c-0.1-1.2,0.2-1.3,1.3-0.8c3.1,1.7,6.4,2.5,10.3,2.8
	c-1.7-1.5-3.1-2.7-4.4-4.1c-7.3-7.8-9-20.3-4.2-29.8c0.7-1.3,0.9-1.3,1.8-0.3c12.3,14.1,27.5,22.7,45.9,25.6
	c1.9,0.4,3.9,0.4,5.8,0.7c1.3,0.2,1.4-0.4,1.3-1.4c-1.9-11,3.3-21.9,13.1-27.5c10-5.8,22.9-4,30.9,3.9c0.9,0.8,1.8,1,2.9,0.7
	c4.9-1.1,9.6-2.9,13.9-5.4c0.4-0.1,0.6-0.3,1.1-0.7c-1.9,6.2-5.6,10.8-11.1,14.5c5.1-0.5,9.6-2,14.2-3.7
	C177,71.1,176.5,71.5,176.3,72z"/>
</svg>
