<?xml version="1.0" encoding="utf-8"?>
<!-- Generator: Adobe Illustrator 19.0.0, SVG Export Plug-In . SVG Version: 6.00 Build 0)  -->
<svg version="1.1" id="Capa_1" xmlns="http://www.w3.org/2000/svg" xmlns:xlink="http://www.w3.org/1999/xlink" x="0px" y="0px"
	 viewBox="0 0 220 220" style="enable-background:new 0 0 220 220;" xml:space="preserve">
<style type="text/css">
	.st0{fill:#FFFFFF;}
</style>
<g id="XMLID_30_">
	<path id="XMLID_36_" class="st0" d="M110,10C54.7,10,10,54.8,10,110c0,55.3,44.7,100,100,100c55.2,0,100-44.7,100-100
		C210,54.8,165.2,10,110,10z M122,169.1c-14,2.6-27.3,0.8-39.9-5.6c-0.7-0.4-1.3-0.4-2.2-0.1c-9.8,2.5-19.6,4.9-29.5,7.6
		c-1.6,0.4-1.6,0.4-1.1-1.2c2.5-9.4,5.1-19,8-28.2c0.1-1.1,0.1-2-0.6-3C37.2,102.6,58,58,98.3,49.9c3.7-0.7,7.8-1,11.6-1.2
		c28.8,0.4,52.7,19.3,59.3,47C177.2,128.7,155.4,162.7,122,169.1z"/>
	<path id="XMLID_39_" class="st0" d="M120.7,60.2C99.7,55.8,82.1,62.9,69.2,80c-12.3,16.6-12.8,38.7-1.8,56.6c0.9,1.2,1,2.2,0.6,3.6
		c-1.6,5.2-2.9,10.3-4.4,15.3c-0.3,1.2-0.1,1.4,1,1c5.5-1.4,10.8-2.9,16.3-4.2c1.1-0.4,2-0.2,3.1,0.5c8,4.7,16.7,7,27.4,7
		c1.4,0.2,4.1,0,7-0.6c28.4-4.6,47.4-32.6,40.8-60.8C154.6,78,141.3,64.6,120.7,60.2z M140.8,127.2c-0.4,6.4-5.3,9.6-10.8,11.1
		c-1.5,0.3-2.7,0.3-4.1,0.1c-2.1,0.2-4.3-0.2-6.3-0.8c-13.9-4.1-24.4-12.6-32.9-24.2c-3.1-4.3-6.2-8.9-7.1-14.3
		c-1.3-6.3,0.7-11.9,5.5-16.3c1.6-1.5,6.2-2.2,8.1-1.2c0.6,0.5,1,1,1.4,1.6c1.7,4.3,3.6,8.3,5.3,12.4c0.3,0.8,0.2,1.7-0.3,2.6
		c-0.9,1.9-2.4,3.4-3.7,5c-1.2,1-1.2,2.1-0.4,3.4c5,8.3,11.7,14.3,20.8,17.8c1.3,0.6,2.3,0.3,3.1-0.7c1.6-1.8,3.1-3.8,4.5-5.7
		c0.9-1.2,2.1-1.4,3.4-0.8c3,1.4,5.9,2.7,8.8,4.1c0.8,0.4,1.4,0.7,2,0.9C141.1,123.8,141.1,124,140.8,127.2z"/>
</g>
</svg>
